<?xml version="1.0" encoding="UTF-8" standalone="no"?>
<!-- Created with Inkscape (http://www.inkscape.org/) -->

<svg
   xmlns:dc="http://purl.org/dc/elements/1.1/"
   xmlns:cc="http://creativecommons.org/ns#"
   xmlns:rdf="http://www.w3.org/1999/02/22-rdf-syntax-ns#"
   xmlns:svg="http://www.w3.org/2000/svg"
   xmlns="http://www.w3.org/2000/svg"
   xmlns:sodipodi="http://sodipodi.sourceforge.net/DTD/sodipodi-0.dtd"
   xmlns:inkscape="http://www.inkscape.org/namespaces/inkscape"
   version="1.1"
   id="svg2"
   xml:space="preserve"
   width="100%"
   height="100%"
   viewBox="0 0 64.919455 18.974755"
   sodipodi:docname="Fourier.svg"
   inkscape:version="0.92.0 unknown"><sodipodi:namedview
     pagecolor="#ffffff"
     bordercolor="#666666"
     borderopacity="1"
     objecttolerance="10"
     gridtolerance="10"
     guidetolerance="10"
     inkscape:pageopacity="0"
     inkscape:pageshadow="2"
     inkscape:window-width="1366"
     inkscape:window-height="744"
     id="namedview4"
     showgrid="false"
     inkscape:zoom="4.4674663"
     inkscape:cx="39.299751"
     inkscape:cy="-7.3056495"
     inkscape:window-x="0"
     inkscape:window-y="24"
     inkscape:window-maximized="1"
     inkscape:current-layer="g10"
     fit-margin-top="0"
     fit-margin-left="0"
     fit-margin-right="0"
     fit-margin-bottom="0" /><metadata
     id="metadata8"><rdf:RDF><cc:Work
         rdf:about=""><dc:format>image/svg+xml</dc:format><dc:type
           rdf:resource="http://purl.org/dc/dcmitype/StillImage" /><dc:title></dc:title></cc:Work></rdf:RDF></metadata><defs
     id="defs6" /><g
     transform="matrix(1.3333333,0,0,-1.3333333,178.25793,129.4395)"
     inkscape:label="NN1"
     inkscape:groupmode="layer"
     id="g10"><g
       id="g4690"><path
         style="font-style:normal;font-variant:normal;font-weight:normal;font-stretch:normal;letter-spacing:normal;word-spacing:normal;text-anchor:start;fill:#000000;fill-opacity:1;fill-rule:evenodd;stroke:#000000;stroke-width:0;stroke-linecap:butt;stroke-linejoin:miter;stroke-miterlimit:10.43299961;stroke-dasharray:none;stroke-dashoffset:0;stroke-opacity:1"
         inkscape:connector-curvature="0"
         d="m -122.12421,95.584956 v 0.02857 l -0.003,0.03143 -0.003,0.02571 -0.006,0.02857 -0.006,0.02571 -0.009,0.02571 -0.0114,0.02286 -0.009,0.02285 -0.0143,0.02286 -0.0114,0.02 -0.0143,0.02 -0.0172,0.02 -0.0171,0.01714 -0.0171,0.02 -0.02,0.01428 -0.02,0.01714 -0.02,0.01429 -0.0228,0.01429 -0.0457,0.02857 -0.0514,0.02286 -0.0514,0.02 -0.0543,0.01714 -0.06,0.01714 -0.0571,0.01429 -0.0628,0.01143 -0.06,0.0086 -0.0657,0.0086 -0.0629,0.0057 -0.0629,0.0057 -0.0657,0.0029 -0.0628,0.0029 -0.0657,0.0029 h -0.06 -0.0628 -0.06 l -0.0571,-0.0029 h -0.0543 -0.0543 l -0.0486,-0.0029 h -0.0457 -0.0457 -5.36537 c -0.70852,0 -1.97701,-0.411402 -2.20557,-1.179923 0.0286,-0.08571 0.0571,-0.09999 0.14285,-0.09999 0.31427,0 0.73995,0.254269 0.93994,0.468541 0.43997,0 0.86851,0.02857 1.30849,0.02857 h 0.8828 c 0,0 -0.0571,-0.254269 -0.0571,-0.268554 -0.55425,-2.605546 -1.3942,-4.811117 -2.01987,-6.205313 -0.0857,-0.185702 -0.85423,-1.965587 -1.05422,-2.134147 -0.62567,0 -1.09421,0.339978 -1.35134,0.894228 -0.0429,0.08571 -0.0429,0.142847 -0.14285,0.142847 -0.32569,0 -1.1085,-0.454256 -1.1085,-0.697097 0,-0.02857 0.0143,-0.05714 0.0286,-0.08571 0.25427,-0.668528 0.89709,-1.051361 1.59418,-1.051361 0.72567,0 1.56276,0.525681 2.01987,1.051361 0.46854,0.539965 1.40848,2.876957 1.77703,3.72833 h 2.74839 c -0.0143,-0.01429 -0.0286,-0.02857 -0.0286,-0.04285 0,-0.05714 0.0857,-0.09999 0.14285,-0.09999 0.31141,0 1.12279,0.399974 1.12279,0.842803 0,0.09714 -0.0971,0.08285 -0.26856,0.08285 h -3.41692 c 0.37141,1.282775 0.85423,2.534122 1.11136,3.842609 h 1.87702 c 0.35712,0 1.3542,0.07142 1.60847,-0.242842 0.0286,-0.08285 -0.0143,-0.225699 0.0286,-0.297123 0.0286,-0.02857 0.0714,-0.04286 0.11427,-0.04286 0.34284,0 1.1085,0.428544 1.1085,0.811376 z"
         id="path4597" /><path
         style="font-style:normal;font-variant:normal;font-weight:normal;font-stretch:normal;letter-spacing:normal;word-spacing:normal;text-anchor:start;fill:#000000;fill-opacity:1;fill-rule:evenodd;stroke:#000000;stroke-width:0;stroke-linecap:butt;stroke-linejoin:miter;stroke-miterlimit:10.43299961;stroke-dasharray:none;stroke-dashoffset:0;stroke-opacity:1"
         inkscape:connector-curvature="0"
         d="m -118.47873,95.184982 v 0.05428 l 0.003,0.05714 0.006,0.05714 0.009,0.06 0.0114,0.06 0.0143,0.06 0.0171,0.06285 0.02,0.06285 0.0257,0.06285 0.0257,0.06285 0.0314,0.06285 0.0343,0.06285 0.04,0.06 0.0429,0.06285 0.0457,0.06 0.0514,0.06 0.0571,0.05714 0.06,0.05428 0.0657,0.05428 0.0714,0.05428 0.0743,0.04857 0.0829,0.04857 0.0857,0.04571 0.0914,0.04 0.0971,0.04 0.10285,0.03714 0.11142,0.03143 0.11428,0.02857 0.06,0.01143 0.0628,0.01428 0.0628,0.0086 0.0657,0.01143 0.0657,0.0086 0.0686,0.0057 0.0714,0.0086 0.0714,0.0057 c 0.0714,0.01143 0.12856,0.06857 0.12856,0.154276 0,0.157132 -0.11428,0.157132 -0.27141,0.157132 -1.42276,0 -2.71697,-0.725667 -2.73125,-1.779884 v -3.242648 c 0,-0.557106 0,-1.011363 -0.56854,-1.482761 -0.49996,-0.411402 -1.03993,-0.439971 -1.35134,-0.454256 -0.0714,-0.01429 -0.12856,-0.07142 -0.12856,-0.157133 0,-0.139991 0.0857,-0.139991 0.2257,-0.154275 0.93994,-0.05714 1.62275,-0.571392 1.77988,-1.26849 0.0429,-0.154275 0.0429,-0.185702 0.0429,-0.697097 V 85.02564 c 0,-0.599961 0,-1.054217 0.68281,-1.594182 0.55425,-0.428544 1.49419,-0.58282 2.04844,-0.58282 0.15713,0 0.27141,0 0.27141,0.154276 0,0.142848 -0.0857,0.142848 -0.22856,0.157133 -0.89422,0.05714 -1.59418,0.514252 -1.77702,1.239919 -0.0429,0.128563 -0.0429,0.154276 -0.0429,0.668528 v 2.988378 c 0,0.654244 -0.11428,0.897085 -0.56853,1.351341 -0.29998,0.297124 -0.71424,0.439972 -1.11136,0.55425 1.16564,0.32855 1.67989,0.982794 1.67989,1.808455 z"
         id="path4599" /><path
         style="font-style:normal;font-variant:normal;font-weight:normal;font-stretch:normal;letter-spacing:normal;word-spacing:normal;text-anchor:start;fill:#000000;fill-opacity:1;fill-rule:evenodd;stroke:#000000;stroke-width:0;stroke-linecap:butt;stroke-linejoin:miter;stroke-miterlimit:10.43299961;stroke-dasharray:none;stroke-dashoffset:0;stroke-opacity:1"
         inkscape:connector-curvature="0"
         d="m -110.61067,90.702415 0.009,0.03714 0.009,0.04285 0.0143,0.04857 0.0114,0.05142 0.0171,0.05428 0.0171,0.06 0.0171,0.06 0.02,0.06571 0.0229,0.06571 0.0257,0.06857 0.0286,0.07142 0.0286,0.06857 0.0314,0.07142 0.0343,0.07142 0.0371,0.07142 0.04,0.07142 0.0428,0.06857 0.0429,0.06857 0.0486,0.06571 0.0514,0.06285 0.0514,0.06285 0.0571,0.05714 0.06,0.05428 0.0628,0.05143 0.0657,0.04571 0.0714,0.04 0.0343,0.02 0.0371,0.01714 0.0371,0.01429 0.04,0.01429 0.04,0.01428 0.04,0.01143 0.04,0.0086 0.0429,0.0086 0.0429,0.0057 0.0457,0.0057 0.0457,0.0029 h 0.0457 c 0.0714,0 0.41426,0 0.71139,-0.185703 -0.39998,-0.07142 -0.68282,-0.425686 -0.68282,-0.765664 0,-0.228557 0.15714,-0.499968 0.53997,-0.499968 0.31426,0 0.76852,0.257126 0.76852,0.825661 0,0.739952 -0.83994,0.939939 -1.32277,0.939939 -0.82566,0 -1.32563,-0.754237 -1.49419,-1.082787 -0.35426,0.939939 -1.12564,1.082787 -1.53704,1.082787 -1.47991,0 -2.29128,-1.837024 -2.29128,-2.191287 0,-0.142848 0.14284,-0.142848 0.17141,-0.142848 0.11143,0 0.15428,0.02857 0.18285,0.154276 0.48568,1.511331 1.42562,1.865594 1.90845,1.865594 0.26855,0 0.76852,-0.128563 0.76852,-0.951367 0,-0.442829 -0.24284,-1.397053 -0.76852,-3.388352 -0.22856,-0.8828 -0.72567,-1.479905 -1.35134,-1.479905 -0.0857,0 -0.41426,0 -0.71139,0.185703 0.35427,0.07142 0.66853,0.368547 0.66853,0.768521 0,0.382833 -0.31426,0.497111 -0.52854,0.497111 -0.42568,0 -0.77994,-0.371404 -0.77994,-0.825661 0,-0.654243 0.70852,-0.939939 1.33705,-0.939939 0.93708,0 1.45134,0.997078 1.49133,1.082787 0.17428,-0.528537 0.68567,-1.082787 1.5399,-1.082787 1.46562,0 2.277,1.837024 2.277,2.191287 0,0.142848 -0.12856,0.142848 -0.17142,0.142848 -0.12856,0 -0.15713,-0.05714 -0.1857,-0.157133 -0.46854,-1.522759 -1.43705,-1.862737 -1.89131,-1.862737 -0.55425,0 -0.7828,0.454257 -0.7828,0.93994 0,0.311408 0.0857,0.625673 0.24284,1.251347 z"
         id="path4601" /><path
         style="font-style:normal;font-variant:normal;font-weight:normal;font-stretch:normal;letter-spacing:normal;word-spacing:normal;text-anchor:start;fill:#000000;fill-opacity:1;fill-rule:evenodd;stroke:#000000;stroke-width:0;stroke-linecap:butt;stroke-linejoin:miter;stroke-miterlimit:10.43299961;stroke-dasharray:none;stroke-dashoffset:0;stroke-opacity:1"
         inkscape:connector-curvature="0"
         d="m -102.36834,82.988629 v 0.0086 0.0086 l -0.003,0.0029 v 0.0057 0.0029 l -0.003,0.0057 v 0.0057 l -0.003,0.0029 -0.003,0.0057 -0.003,0.0057 -0.003,0.0086 -0.003,0.0057 -0.006,0.0057 -0.006,0.0086 -0.006,0.0086 -0.006,0.0086 -0.009,0.0086 -0.009,0.01143 -0.003,0.0057 -0.006,0.0057 -0.006,0.0057 -0.006,0.0057 -0.006,0.0057 -0.006,0.0086 -0.006,0.0057 -0.006,0.0057 -0.006,0.0086 -0.009,0.0057 -0.006,0.0086 -0.009,0.0086 -0.006,0.0086 -0.009,0.0086 -0.009,0.0086 -0.009,0.0086 -0.009,0.0086 -0.009,0.0086 -0.0114,0.01143 -0.009,0.0086 -0.0114,0.01143 -0.009,0.0086 -0.0114,0.01143 -0.0114,0.01143 c -1.77989,1.79417 -2.23414,4.482567 -2.23414,6.659569 0,2.476983 0.54282,4.953965 2.29128,6.73385 0.1857,0.168561 0.1857,0.19713 0.1857,0.239985 0,0.09999 -0.0571,0.142847 -0.14285,0.142847 -0.14285,0 -1.42276,-0.968508 -2.26271,-2.776963 -0.72567,-1.562756 -0.89709,-3.142653 -0.89709,-4.339719 0,-1.108499 0.15714,-2.831245 0.93994,-4.439712 0.85423,-1.748458 2.07701,-2.674113 2.21986,-2.674113 0.0857,0 0.14285,0.04286 0.14285,0.139991 z"
         id="path4603" /><path
         style="font-style:normal;font-variant:normal;font-weight:normal;font-stretch:normal;letter-spacing:normal;word-spacing:normal;text-anchor:start;fill:#000000;fill-opacity:1;fill-rule:evenodd;stroke:#000000;stroke-width:0;stroke-linecap:butt;stroke-linejoin:miter;stroke-miterlimit:10.43299961;stroke-dasharray:none;stroke-dashoffset:0;stroke-opacity:1"
         inkscape:connector-curvature="0"
         d="m -98.720007,92.099468 h 1.339914 c 0.282838,0 0.425686,0 0.425686,0.282839 0,0.157132 -0.142848,0.157132 -0.399974,0.157132 h -1.251347 c 0.511395,2.01987 0.582819,2.305565 0.582819,2.391274 0,0.239985 -0.171417,0.382832 -0.411402,0.382832 -0.04285,0 -0.439971,-0.01428 -0.568535,-0.511395 l -0.557106,-2.262711 h -1.337058 c -0.28284,0 -0.42569,0 -0.42569,-0.271411 0,-0.16856 0.11143,-0.16856 0.39712,-0.16856 h 1.254206 c -1.025646,-4.042596 -1.082786,-4.285437 -1.082786,-4.539706 0,-0.771379 0.53996,-1.311344 1.308486,-1.311344 1.451335,0 2.262711,2.079865 2.262711,2.191287 0,0.142848 -0.114279,0.142848 -0.171418,0.142848 -0.128563,0 -0.139991,-0.04286 -0.211415,-0.19713 -0.611389,-1.482762 -1.365626,-1.82274 -1.851308,-1.82274 -0.299981,0 -0.439972,0.185703 -0.439972,0.654244 0,0.342835 0.02857,0.439971 0.08285,0.682813 z"
         id="path4605" /><path
         style="font-style:normal;font-variant:normal;font-weight:normal;font-stretch:normal;letter-spacing:normal;word-spacing:normal;text-anchor:start;fill:#000000;fill-opacity:1;fill-rule:evenodd;stroke:#000000;stroke-width:0;stroke-linecap:butt;stroke-linejoin:miter;stroke-miterlimit:10.43299961;stroke-dasharray:none;stroke-dashoffset:0;stroke-opacity:1"
         inkscape:connector-curvature="0"
         d="m -92.394702,89.962463 -0.0029,0.105708 v 0.111421 l -0.0029,0.111421 -0.0029,0.117136 -0.01143,0.239984 -0.01714,0.251413 -0.02571,0.26284 -0.02857,0.268554 -0.04,0.279982 -0.04571,0.285695 -0.05714,0.29141 -0.06571,0.297124 -0.07714,0.29998 -0.08571,0.302838 -0.09999,0.302837 -0.111421,0.305695 -0.06285,0.151419 -0.06285,0.154275 -0.06857,0.151419 -0.07142,0.151419 c -0.85423,1.748458 -2.077008,2.674112 -2.219856,2.674112 -0.08571,0 -0.142848,-0.05714 -0.142848,-0.142847 0,-0.04285 0,-0.07142 0.268554,-0.328551 1.397052,-1.405623 2.208428,-3.671191 2.208428,-6.645284 0,-2.434128 -0.528537,-4.936823 -2.29128,-6.730992 -0.185702,-0.171418 -0.185702,-0.197131 -0.185702,-0.242842 0,-0.08285 0.05714,-0.139991 0.142848,-0.139991 0.142848,0 1.422765,0.965652 2.26271,2.774106 0.725668,1.565613 0.897085,3.145511 0.897085,4.339719 z"
         id="path4607" /><path
         style="font-style:normal;font-variant:normal;font-weight:normal;font-stretch:normal;letter-spacing:normal;word-spacing:normal;text-anchor:start;fill:#000000;fill-opacity:1;fill-rule:evenodd;stroke:#000000;stroke-width:0;stroke-linecap:butt;stroke-linejoin:miter;stroke-miterlimit:10.43299961;stroke-dasharray:none;stroke-dashoffset:0;stroke-opacity:1"
         inkscape:connector-curvature="0"
         d="m -88.006415,84.739944 -0.0029,-0.05428 -0.0029,-0.05428 -0.0057,-0.06 -0.0086,-0.05714 -0.01143,-0.06 -0.01429,-0.06285 -0.01714,-0.06 -0.02,-0.06285 -0.02286,-0.06285 -0.02857,-0.06285 -0.03143,-0.06285 -0.03428,-0.06285 -0.03714,-0.06285 -0.04285,-0.06 -0.04857,-0.06 -0.05143,-0.06 -0.05428,-0.05714 -0.06285,-0.05714 -0.06285,-0.05428 -0.07142,-0.05143 -0.07714,-0.04857 -0.07999,-0.04857 -0.08571,-0.04571 -0.09142,-0.04285 -0.09999,-0.03714 -0.10285,-0.03714 -0.108565,-0.03143 -0.117135,-0.02857 -0.06,-0.01143 -0.06,-0.01429 -0.06571,-0.0086 -0.06285,-0.01143 -0.06857,-0.0086 -0.06857,-0.0057 -0.06857,-0.0086 -0.07428,-0.0057 c -0.07142,-0.01429 -0.125706,-0.07142 -0.125706,-0.157133 0,-0.154276 0.154275,-0.154276 0.282838,-0.154276 1.379911,0 2.70554,0.697098 2.719824,1.777028 v 3.245504 c 0,0.55425 0,1.011363 0.568535,1.479904 0.497111,0.414259 1.039933,0.442829 1.351341,0.457114 0.07142,0.01428 0.128563,0.07142 0.128563,0.154275 0,0.142848 -0.08571,0.142848 -0.228556,0.157133 -0.93994,0.05714 -1.622753,0.568535 -1.777028,1.265632 -0.04285,0.157133 -0.04285,0.185703 -0.04285,0.699955 v 2.816961 c 0,0.597104 0,1.054217 -0.682813,1.594182 -0.568534,0.439972 -1.551328,0.582819 -2.037011,0.582819 -0.128563,0 -0.282838,0 -0.282838,-0.157132 0,-0.142848 0.08571,-0.142848 0.225699,-0.154276 0.897085,-0.05714 1.594183,-0.514252 1.779885,-1.23992 0.04285,-0.128563 0.04285,-0.157132 0.04285,-0.668528 v -2.988378 c 0,-0.654243 0.114279,-0.897085 0.568535,-1.354198 0.299981,-0.297123 0.711383,-0.439971 1.111357,-0.55425 -1.168496,-0.325693 -1.679892,-0.979936 -1.679892,-1.805597 z"
         id="path4609" /></g></g></svg>