<?xml version="1.0" encoding="UTF-8" standalone="no"?>
<!-- Created with Inkscape (http://www.inkscape.org/) -->

<svg
   xmlns:dc="http://purl.org/dc/elements/1.1/"
   xmlns:cc="http://creativecommons.org/ns#"
   xmlns:rdf="http://www.w3.org/1999/02/22-rdf-syntax-ns#"
   xmlns:svg="http://www.w3.org/2000/svg"
   xmlns="http://www.w3.org/2000/svg"
   xmlns:sodipodi="http://sodipodi.sourceforge.net/DTD/sodipodi-0.dtd"
   xmlns:inkscape="http://www.inkscape.org/namespaces/inkscape"
   width="25.906155mm"
   height="9.6297102mm"
   viewBox="0 0 25.906155 9.6297102"
   version="1.1"
   id="svg7241"
   inkscape:version="0.92.0 unknown"
   sodipodi:docname="HCL.svg">
  <defs
     id="defs7235" />
  <sodipodi:namedview
     id="base"
     pagecolor="#ffffff"
     bordercolor="#666666"
     borderopacity="1.0"
     inkscape:pageopacity="0.0"
     inkscape:pageshadow="2"
     inkscape:zoom="3.959798"
     inkscape:cx="60.94708"
     inkscape:cy="0.21604998"
     inkscape:document-units="mm"
     inkscape:current-layer="layer1"
     showgrid="false"
     fit-margin-top="0"
     fit-margin-left="0"
     fit-margin-right="0"
     fit-margin-bottom="0"
     inkscape:window-width="1366"
     inkscape:window-height="744"
     inkscape:window-x="0"
     inkscape:window-y="24"
     inkscape:window-maximized="1" />
  <metadata
     id="metadata7238">
    <rdf:RDF>
      <cc:Work
         rdf:about="">
        <dc:format>image/svg+xml</dc:format>
        <dc:type
           rdf:resource="http://purl.org/dc/dcmitype/StillImage" />
        <dc:title></dc:title>
      </cc:Work>
    </rdf:RDF>
  </metadata>
  <g
     inkscape:label="Capa 1"
     inkscape:groupmode="layer"
     id="layer1"
     transform="translate(52.03332,-125.89731)">
    <g
       aria-label="{HCL}"
       transform="matrix(0.26607725,0,0,0.26607725,-58.436843,-113.52732)"
       style="font-style:normal;font-weight:normal;font-size:40px;line-height:25px;font-family:sans-serif;letter-spacing:0px;word-spacing:0px;fill:#000000;fill-opacity:1;stroke:none;stroke-width:1px;stroke-linecap:butt;stroke-linejoin:miter;stroke-opacity:1"
       id="flowRoot6096">
      <path
         d="m 38.617187,932.95627 h -3.222656 c -0.898437,0 -1.679687,-0.3125 -2.324219,-0.95703 -0.644531,-0.64453 -0.957031,-1.62109 -0.957031,-2.91016 v -5.2539 c 0,-1.32813 -0.332031,-2.51953 -1.015625,-3.57422 -0.742187,-1.13281 -1.796875,-1.91406 -3.144531,-2.34375 1.269531,-0.33203 2.304687,-1.07422 3.066406,-2.26563 0.722656,-1.11328 1.09375,-2.34375 1.09375,-3.6914 v -5.19531 c 0,-1.28907 0.3125,-2.2461 0.957031,-2.89063 0.644532,-0.64453 1.425782,-0.97656 2.324219,-0.97656 h 3.222656 v -3.06641 h -3.222656 c -1.855469,0 -3.4375,0.66406 -4.746094,1.97266 -1.308593,1.30859 -1.972656,3.08594 -1.972656,5.33203 v 4.92187 c 0,1.11329 -0.410156,2.08985 -1.210937,2.89063 -0.800782,0.80078 -1.757813,1.21094 -2.871094,1.21094 h -0.527344 v 3.49609 h 0.546875 c 1.113281,0 2.070313,0.41016 2.871094,1.21094 0.800781,0.80078 1.191406,1.77734 1.191406,2.92969 v 4.9414 c 0,2.2461 0.664063,4.00391 1.972656,5.3125 1.308594,1.3086 2.890625,1.97266 4.746094,1.97266 h 3.222656 z"
         style="font-style:normal;font-variant:normal;font-weight:normal;font-stretch:normal;font-family:'Pragmata Pro';-inkscape-font-specification:'Pragmata Pro'"
         id="path7819" />
      <path
         d="m 59.476562,902.48752 h -3.4375 v 12.5 h -7.96875 v -12.5 h -3.4375 v 30.85938 h 3.4375 v -15.42969 h 7.96875 v 15.42969 h 3.4375 z"
         style="font-style:normal;font-variant:normal;font-weight:normal;font-stretch:normal;font-family:'Pragmata Pro';-inkscape-font-specification:'Pragmata Pro'"
         id="path7821" />
      <path
         d="m 78.734375,926.88205 c -1.152344,2.48047 -2.832031,3.73047 -5.039063,3.73047 -1.289062,0 -2.363281,-0.46875 -3.222656,-1.40625 -0.839844,-0.9375 -1.269531,-2.92969 -1.269531,-5.99609 v -10.625 c 0,-3.06641 0.429687,-5.0586 1.269531,-5.9961 0.859375,-0.9375 1.933594,-1.40625 3.222656,-1.40625 2.207032,0 3.808594,1.19141 4.84375,3.57422 l 2.8125,-1.69922 c -1.660156,-3.33984 -4.21875,-5 -7.675781,-5 -2.207031,0 -4.082031,0.78125 -5.625,2.34375 -1.542969,1.5625 -2.304687,4.29688 -2.304687,8.1836 v 10.625 c 0,4.02344 0.761718,6.77734 2.304687,8.28125 1.542969,1.5039 3.417969,2.24609 5.664063,2.24609 3.300781,0 5.917968,-1.66015 7.832031,-4.96094 z"
         style="font-style:normal;font-variant:normal;font-weight:normal;font-stretch:normal;font-family:'Pragmata Pro';-inkscape-font-specification:'Pragmata Pro'"
         id="path7823" />
      <path
         d="M 102.05469,930.41721 H 91.46875 v -27.92969 h -3.4375 v 30.85938 h 14.02344 z"
         style="font-style:normal;font-variant:normal;font-weight:normal;font-stretch:normal;font-family:'Pragmata Pro';-inkscape-font-specification:'Pragmata Pro';fill:#aa0000"
         id="path7825" />
      <path
         d="m 121.42969,916.1594 h -0.54688 c -1.11328,0 -2.07031,-0.41016 -2.87109,-1.21094 -0.80078,-0.80078 -1.19141,-1.77734 -1.19141,-2.89063 v -4.92187 c 0,-2.24609 -0.66406,-4.02344 -1.97265,-5.33203 -1.3086,-1.3086 -2.89063,-1.97266 -4.7461,-1.97266 h -3.22265 v 3.06641 h 3.22265 c 0.89844,0 1.66016,0.33203 2.30469,0.97656 0.64453,0.64453 0.97656,1.60156 0.97656,2.89063 v 5.19531 c 0,1.34765 0.3711,2.57812 1.09375,3.6914 0.76172,1.19141 1.79688,1.9336 3.06641,2.26563 -1.34766,0.42969 -2.40234,1.21094 -3.14453,2.34375 -0.6836,1.05469 -1.01563,2.24609 -1.01563,3.57422 v 5.2539 c 0,1.28907 -0.33203,2.26563 -0.97656,2.91016 -0.64453,0.64453 -1.40625,0.95703 -2.30469,0.95703 h -3.22265 v 3.06641 h 3.22265 c 1.85547,0 3.4375,-0.66406 4.7461,-1.97266 1.30859,-1.30859 1.97265,-3.0664 1.97265,-5.3125 v -4.9414 c 0,-1.15235 0.39063,-2.12891 1.19141,-2.92969 0.80078,-0.80078 1.73828,-1.21094 2.85156,-1.21094 h 0.56641 z"
         style="font-style:normal;font-variant:normal;font-weight:normal;font-stretch:normal;font-family:'Pragmata Pro';-inkscape-font-specification:'Pragmata Pro';fill:#aa0000"
         id="path7827" />
    </g>
  </g>
</svg>
