<?xml version="1.0" encoding="UTF-8" standalone="no"?>
<svg
   xmlns:dc="http://purl.org/dc/elements/1.1/"
   xmlns:cc="http://creativecommons.org/ns#"
   xmlns:rdf="http://www.w3.org/1999/02/22-rdf-syntax-ns#"
   xmlns:svg="http://www.w3.org/2000/svg"
   xmlns="http://www.w3.org/2000/svg"
   id="svg8"
   version="1.1"
   viewBox="0 0 124.25756 121.26599"
   height="100%"
   width="100%">
  <defs
     id="defs2" />
  <metadata
     id="metadata5">
    <rdf:RDF>
      <cc:Work
         rdf:about="">
        <dc:format>image/svg+xml</dc:format>
        <dc:type
           rdf:resource="http://purl.org/dc/dcmitype/StillImage" />
        <dc:title></dc:title>
      </cc:Work>
    </rdf:RDF>
  </metadata>
  <g
     transform="translate(-64.86026,-55.790549)"
     id="layer1">
    <g
       transform="translate(186.72024,6.6145834)"
       id="g7048">
      <path
         id="path5042"
         style="fill:none;fill-opacity:1;fill-rule:nonzero;stroke:none;stroke-width:0.03527778"
         d="m -59.200236,110.50319 -7.14481,7.48454 -7.26264,-1.55293 -27.203754,-5.79896 41.611204,-0.13265" />
      <path
         id="path5038"
         style="fill:none;fill-opacity:1;fill-rule:nonzero;stroke:none;stroke-width:0.03527778"
         d="m -58.755736,67.604713 -0.3556,42.810287 -0.0889,0.0882 -7.4997,-6.02086 1.44956,-6.759219 6.49464,-30.118398" />
      <path
         id="path5028"
         style="fill:#ffffff;fill-opacity:1;fill-rule:nonzero;stroke:none;stroke-width:0.03527778"
         d="m -34.437007,135.6506 -19.038349,-11.2723 h -0.0145 l 1.19768,-6.00499 17.855139,17.27729" />
      <path
         style="fill:#ffffff;fill-opacity:1;fill-rule:nonzero;stroke:none;stroke-width:0.03554202"
         d="m -23.753144,110.38698 -1.489832,0.005 c 9e-4,0.10183 0.0155,0.20027 0.0155,0.3023 0,9.28125 -3.764298,17.66268 -9.804569,23.80527 l 0.572058,0.97979 0.209291,0.35811 -0.414446,-0.24494 -0.906404,-0.53692 c -5.741646,5.58269 -13.41753,9.19093 -21.93406,9.64385 l -0.30231,1.50586 c 18.916981,-0.80358 34.070272,-16.39982 34.070272,-35.51102 0,-0.10378 -0.01461,-0.20389 -0.0155,-0.30747 z"
         id="path6836" />
      <path
         id="path5032"
         style="fill:none;fill-opacity:1;fill-rule:nonzero;stroke:none;stroke-width:0.03527778"
         d="m -45.931206,105.44401 27.291941,4.86692 -0.01446,0.0593 -40.457611,0.133 v -0.0882 l 6.84883,-6.09459 6.3313,1.1236" />
      <path
         style="fill:#ffffff;fill-opacity:1;fill-rule:nonzero;stroke:none;stroke-width:0.03554202"
         d="m -58.830738,76.622783 c 9.445196,0.13767 17.942914,4.14067 24.032641,10.49135 l 1.100193,-0.64854 -0.897104,0.86248 c 5.424431,5.75497 8.900731,13.369177 9.287806,21.794017 l 1.503267,0.2682 c -0.688049,-18.846527 -16.066003,-33.989117 -35.0144,-34.258367 z"
         id="path6857" />
      <path
         style="fill:#ffffff;fill-opacity:1;fill-rule:nonzero;stroke:none;stroke-width:0.13433205"
         d="m -315.4707,509.05469 -4.96289,2.95312 c 23.00684,23.61925 54.59697,38.84109 89.73242,40.52735 l -1.08008,-5.68555 c -32.64757,-1.90842 -62.03059,-16.00932 -83.68945,-37.79492 z"
         id="path6891"
         transform="scale(0.26458333)" />
      <path
         style="fill:#ffffff;fill-opacity:1;fill-rule:nonzero;stroke:none;stroke-width:0.13433205"
         d="m -358.50195,422.95117 c 1.1703,34.50013 15.4097,65.67889 37.87304,88.83985 l 4.0918,-3.85938 c -21.24158,-21.88278 -34.81674,-51.24699 -36.27344,-83.76758 z"
         id="path6874"
         transform="scale(0.26458333)" />
      <path
         style="fill:#ffffff;fill-opacity:1;fill-rule:nonzero;stroke:none;stroke-width:0.13433205"
         d="m -228.22656,284.07031 c -72.20639,2.14099 -130.3286,61.33072 -130.48633,134.00977 l 5.63477,-0.0176 c 0.0843,-35.00634 14.23367,-66.70219 37.05273,-89.86328 l -2.65625,-4.8125 3.62695,3.89453 c 22.17045,-22.04448 52.24428,-36.16632 85.59961,-37.51563 z"
         id="path6855"
         transform="scale(0.26458333)" />
      <path
         d="m -34.437007,135.6506 -19.038349,-11.2723 h -0.0145 l 1.19768,-6.00499 17.855139,17.27729"
         style="fill:#ffffff;fill-opacity:1;fill-rule:nonzero;stroke:none;stroke-width:0.03527778"
         id="path6804" />
      <path
         id="path5036"
         style="fill:none;fill-opacity:1;fill-rule:nonzero;stroke:none;stroke-width:0.03527778"
         d="m -59.111336,110.60726 6.81919,7.76605 -1.19768,6.00499 -5.97605,29.76284 0.35454,-43.53388" />
      <path
         style="fill:#ffffff;fill-opacity:1;fill-rule:nonzero;stroke:none;stroke-width:0.03527778"
         d="m -23.166618,110.38543 -0.222208,5.2e-4 c 8.86e-4,0.10375 0.0155,0.20403 0.0155,0.30799 0,19.35885 -15.390463,35.14863 -34.57308,35.88153 l -0.0455,0.22479 c 19.325893,-0.70975 34.84076,-16.60942 34.84076,-36.10632 0,-0.10413 -0.01462,-0.20458 -0.0155,-0.30851 z"
         id="path6844" />
      <path
         style="fill:#ffffff;fill-opacity:1;fill-rule:nonzero;stroke:none;stroke-width:0.03527778"
         d="m -58.815234,74.768123 c 19.170131,0.27126 34.724808,15.61063 35.379234,34.687797 l 0.224277,0.0398 C -23.845866,90.278423 -39.5088,74.817753 -58.813686,74.545393 Z"
         id="path6864" />
      <path
         style="fill:#ffffff;fill-opacity:1;fill-rule:nonzero;stroke:none;stroke-width:0.13333334"
         d="m -359.89062,422.6543 -0.84961,-0.17969 c 2.13943,71.52738 59.39606,129.28973 130.70507,132.31055 l -0.16015,-0.84961 c -70.71323,-3.09679 -127.46726,-60.35478 -129.69531,-131.28125 z"
         id="path6881"
         transform="scale(0.26458333)" />
      <path
         style="fill:#ffffff;fill-opacity:1;fill-rule:nonzero;stroke:none;stroke-width:0.13333334"
         d="m -227.74219,281.82812 c -73.65551,1.88856 -133.03162,62.19104 -133.18554,136.25782 l 0.83984,-0.002 c 0.15483,-73.54252 59.05431,-133.41989 132.16211,-135.40429 z"
         id="path6862"
         transform="scale(0.26458333)" />
      <path
         id="path5044"
         style="fill:#ffffff;fill-opacity:1;fill-rule:nonzero;stroke:none;stroke-width:0.03527778"
         d="m -59.200236,110.50319 -41.611204,0.13265 27.543834,-4.96923 6.56767,-1.18428 7.4997,6.02086" />
      <path
         id="path4706"
         style="fill:#ffffff;fill-opacity:1;fill-rule:nonzero;stroke:none;stroke-width:0.03527778"
         d="m -59.325476,65.496863 c -24.92163,0 -45.196834,20.2752 -45.196834,45.196827 0,24.92234 20.275204,45.19687 45.196834,45.19687 24.922335,0 45.197181,-20.27453 45.197181,-45.19687 0,-24.921627 -20.274846,-45.196827 -45.197181,-45.196827 z m 0,90.616267 c -25.04404,0 -45.419084,-20.37468 -45.419084,-45.41944 0,-25.044047 20.375044,-45.419427 45.419084,-45.419427 25.044397,0 45.419431,20.37538 45.419431,45.419427 0,25.04476 -20.375034,45.41944 -45.419431,45.41944" />
      <path
         id="path4708"
         style="fill:#ffffff;fill-opacity:1;fill-rule:nonzero;stroke:none;stroke-width:0.03527778"
         d="m -59.325476,62.538463 c -26.55252,0 -48.155224,21.60235 -48.155224,48.155227 0,26.55323 21.602704,48.15551 48.155224,48.15551 26.553227,0 48.155576,-21.60228 48.155576,-48.15551 0,-26.552877 -21.602349,-48.155227 -48.155576,-48.155227 z m 0,96.533447 c -26.67564,0 -48.377474,-21.70257 -48.377474,-48.37822 0,-26.675637 21.701834,-48.377827 48.377474,-48.377827 26.676347,0 48.378179,21.70219 48.378179,48.377827 0,26.67565 -21.701832,48.37822 -48.378179,48.37822" />
      <path
         id="path4710"
         style="fill:#ffffff;fill-opacity:1;fill-rule:nonzero;stroke:none;stroke-width:0.03527778"
         d="m -104.81229,110.69651 -2.58904,-0.006 v -0.22225 l 2.58904,0.006 v 0.22225" />
      <path
         id="path4712"
         style="fill:#ffffff;fill-opacity:1;fill-rule:nonzero;stroke:none;stroke-width:0.03527778"
         d="m -104.68106,107.98718 -2.58339,-0.15875 0.0127,-0.22084 2.58374,0.15875 -0.013,0.22084" />
      <path
         id="path4714"
         style="fill:#ffffff;fill-opacity:1;fill-rule:nonzero;stroke:none;stroke-width:0.03527778"
         d="m -104.46375,105.28667 -2.56963,-0.31045 0.0257,-0.21978 2.56999,0.3108 -0.0261,0.21943" />
      <path
         id="path4716"
         style="fill:#ffffff;fill-opacity:1;fill-rule:nonzero;stroke:none;stroke-width:0.03527778"
         d="m -104.06123,102.60626 -2.54705,-0.46355 0.0406,-0.21802 2.54671,0.46355 -0.0402,0.21802" />
      <path
         id="path4718"
         style="fill:#ffffff;fill-opacity:1;fill-rule:nonzero;stroke:none;stroke-width:0.03527778"
         d="m -103.48902,99.959721 -2.5146,-0.6156 0.0533,-0.21484 2.5146,0.61525 -0.0533,0.21519" />
      <path
         id="path4720"
         style="fill:#ffffff;fill-opacity:1;fill-rule:nonzero;stroke:none;stroke-width:0.03527778"
         d="m -102.82121,97.331883 -2.47298,-0.76412 0.0649,-0.21202 2.47333,0.76412 -0.0653,0.21202" />
      <path
         id="path4722"
         style="fill:#ffffff;fill-opacity:1;fill-rule:nonzero;stroke:none;stroke-width:0.03527778"
         d="m -101.90082,94.783063 -2.42252,-0.91122 0.0776,-0.20814 2.42288,0.91157 -0.078,0.20779" />
      <path
         id="path4724"
         style="fill:#ffffff;fill-opacity:1;fill-rule:nonzero;stroke:none;stroke-width:0.03527778"
         d="m -100.89399,92.269523 -2.36326,-1.05622 0.091,-0.20214 2.36326,1.05586 -0.091,0.2025" />
      <path
         id="path4726"
         style="fill:#ffffff;fill-opacity:1;fill-rule:nonzero;stroke:none;stroke-width:0.03527778"
         d="m -99.723116,89.825473 -2.296234,-1.19627 0.10266,-0.19649 2.296234,1.19591 -0.10266,0.19685" />
      <path
         id="path4728"
         style="fill:#ffffff;fill-opacity:1;fill-rule:nonzero;stroke:none;stroke-width:0.03527778"
         d="m -98.388906,87.467513 -2.220394,-1.33033 0.11395,-0.1905 2.220384,1.33033 -0.11394,0.1905" />
      <path
         id="path4730"
         style="fill:#ffffff;fill-opacity:1;fill-rule:nonzero;stroke:none;stroke-width:0.03527778"
         d="m -96.968976,85.159993 -2.13713,-1.4605 0.12523,-0.18345 2.13748,1.4605 -0.12558,0.18345" />
      <path
         id="path4732"
         style="fill:#ffffff;fill-opacity:1;fill-rule:nonzero;stroke:none;stroke-width:0.03527778"
         d="m -95.349026,82.984413 -2.04717,-1.58468 0.13617,-0.17463 2.04682,1.58433 -0.13582,0.17498" />
      <path
         id="path4734"
         style="fill:#ffffff;fill-opacity:1;fill-rule:nonzero;stroke:none;stroke-width:0.03527778"
         d="m -93.635586,80.887503 -1.94945,-1.70286 0.1457,-0.16792 1.9498,1.70321 -0.14605,0.16757" />
      <path
         id="path4736"
         style="fill:#ffffff;fill-opacity:1;fill-rule:nonzero;stroke:none;stroke-width:0.03527778"
         d="m -91.817716,78.875963 -1.84468,-1.8161 0.15628,-0.15699 1.84433,1.81575 -0.15593,0.15734" />
      <path
         id="path4738"
         style="fill:#ffffff;fill-opacity:1;fill-rule:nonzero;stroke:none;stroke-width:0.03527778"
         d="m -89.839336,77.024233 -1.73426,-1.92264 0.16475,-0.14888 1.73425,1.92264 -0.16474,0.14888" />
      <path
         id="path4740"
         style="fill:#ffffff;fill-opacity:1;fill-rule:nonzero;stroke:none;stroke-width:0.03527778"
         d="m -87.795346,75.245173 -1.61713,-2.02107 0.17321,-0.13864 1.61713,2.02071 -0.17321,0.139" />
      <path
         id="path4742"
         style="fill:#ffffff;fill-opacity:1;fill-rule:nonzero;stroke:none;stroke-width:0.03527778"
         d="m -85.626816,73.616393 -1.49543,-2.11384 0.18062,-0.12841 1.49507,2.11349 -0.18026,0.12876" />
      <path
         id="path4744"
         style="fill:#ffffff;fill-opacity:1;fill-rule:nonzero;stroke:none;stroke-width:0.03527778"
         d="m -83.365166,72.125553 -1.36666,-2.19851 0.18768,-0.11712 1.36666,2.19851 -0.18768,0.11712" />
      <path
         id="path4746"
         style="fill:#ffffff;fill-opacity:1;fill-rule:nonzero;stroke:none;stroke-width:0.03527778"
         d="m -81.049886,70.716913 -1.23295,-2.27647 0.19543,-0.10548 1.23261,2.27647 -0.19509,0.10548" />
      <path
         id="path4748"
         style="fill:#ffffff;fill-opacity:1;fill-rule:nonzero;stroke:none;stroke-width:0.03527778"
         d="m -78.609716,69.535113 -1.09432,-2.34598 0.20073,-0.0938 1.09432,2.34633 -0.20073,0.0935" />
      <path
         id="path4750"
         style="fill:#ffffff;fill-opacity:1;fill-rule:nonzero;stroke:none;stroke-width:0.03527778"
         d="m -76.130046,68.449613 -0.95214,-2.40806 0.20637,-0.0811 0.9525,2.40841 -0.20673,0.0808" />
      <path
         id="path4752"
         style="fill:#ffffff;fill-opacity:1;fill-rule:nonzero;stroke:none;stroke-width:0.03527778"
         d="m -73.586866,67.510873 -0.80539,-2.46063 0.21096,-0.0691 0.80504,2.46027 -0.21061,0.0695" />
      <path
         id="path4754"
         style="fill:#ffffff;fill-opacity:1;fill-rule:nonzero;stroke:none;stroke-width:0.03527778"
         d="m -73.382256,67.434673 -0.79375,-2.46274 0.21061,-0.0681 0.79375,2.46309 -0.21061,0.0677" />
      <path
         id="path4756"
         style="fill:#ffffff;fill-opacity:1;fill-rule:nonzero;stroke:none;stroke-width:0.03527778"
         d="m -70.772756,66.711833 -0.64453,-2.50614 0.2152,-0.055 0.64452,2.50613 -0.21519,0.055" />
      <path
         id="path4758"
         style="fill:#ffffff;fill-opacity:1;fill-rule:nonzero;stroke:none;stroke-width:0.03527778"
         d="m -68.139976,66.075773 -0.49248,-2.54106 0.21802,-0.0423 0.49247,2.54105 -0.21801,0.0423" />
      <path
         id="path4760"
         style="fill:#ffffff;fill-opacity:1;fill-rule:nonzero;stroke:none;stroke-width:0.03527778"
         d="m -65.460276,65.661613 -0.34008,-2.56717 0.21943,-0.0289 0.34008,2.56717 -0.21943,0.0289" />
      <path
         id="path4762"
         style="fill:#ffffff;fill-opacity:1;fill-rule:nonzero;stroke:none;stroke-width:0.03527778"
         d="m -62.766816,65.377623 -0.18803,-2.58128 0.22119,-0.0159 0.18768,2.58127 -0.22084,0.0159" />
      <path
         id="path4764"
         style="fill:#ffffff;fill-opacity:1;fill-rule:nonzero;stroke:none;stroke-width:0.03527778"
         d="m -60.059246,65.234043 -0.0353,-2.58868 0.2226,-0.003 0.0353,2.58904 -0.2226,0.003" />
      <path
         id="path4766"
         style="fill:#ffffff;fill-opacity:1;fill-rule:nonzero;stroke:none;stroke-width:0.03527778"
         d="m -57.128726,65.313063 -0.22084,-0.0106 0.11677,-2.58586 0.22119,0.0102 -0.11712,2.58621" />
      <path
         id="path4768"
         style="fill:#ffffff;fill-opacity:1;fill-rule:nonzero;stroke:none;stroke-width:0.03527778"
         d="m -54.421506,65.469693 -0.22084,-0.0233 0.26917,-2.57563 0.22084,0.0229 -0.26917,2.57598" />
      <path
         id="path4770"
         style="fill:#ffffff;fill-opacity:1;fill-rule:nonzero;stroke:none;stroke-width:0.03527778"
         d="m -51.742516,65.886333 -0.21978,-0.036 0.42263,-2.55411 0.21978,0.036 -0.42263,2.55412" />
      <path
         id="path4772"
         style="fill:#ffffff;fill-opacity:1;fill-rule:nonzero;stroke:none;stroke-width:0.03527778"
         d="m -49.083626,66.398563 -0.21696,-0.0494 0.57432,-2.52342 0.21696,0.0487 -0.57432,2.52413" />
      <path
         id="path4774"
         style="fill:#ffffff;fill-opacity:1;fill-rule:nonzero;stroke:none;stroke-width:0.03527778"
         d="m -46.461076,67.079423 -0.21237,-0.0617 0.72496,-2.48496 0.21272,0.0621 -0.72531,2.48461" />
      <path
         id="path4776"
         style="fill:#ffffff;fill-opacity:1;fill-rule:nonzero;stroke:none;stroke-width:0.03527778"
         d="m -43.893921,67.942673 -0.20955,-0.0751 0.87313,-2.43699 0.20955,0.0748 -0.87313,2.43734" />
      <path
         id="path4778"
         style="fill:#ffffff;fill-opacity:1;fill-rule:nonzero;stroke:none;stroke-width:0.03527778"
         d="m -41.357451,68.896233 -0.20355,-0.0868 1.01776,-2.38054 0.20356,0.0864 -1.01777,2.3809" />
      <path
         id="path4780"
         style="fill:#ffffff;fill-opacity:1;fill-rule:nonzero;stroke:none;stroke-width:0.03527778"
         d="m -38.919051,70.079803 -0.19755,-0.0995 1.158519,-2.31563 0.197555,0.0995 -1.158524,2.31564" />
      <path
         id="path4782"
         style="fill:#ffffff;fill-opacity:1;fill-rule:nonzero;stroke:none;stroke-width:0.03527778"
         d="m -36.533918,71.362853 -0.191912,-0.11113 1.293989,-2.24225 0.192264,0.11112 -1.294341,2.24226" />
      <path
         id="path4784"
         style="fill:#ffffff;fill-opacity:1;fill-rule:nonzero;stroke:none;stroke-width:0.03527778"
         d="m -34.220754,72.775723 -0.184503,-0.12312 1.425575,-2.16111 0.184855,0.12312 -1.425927,2.16111" />
      <path
         id="path4786"
         style="fill:#ffffff;fill-opacity:1;fill-rule:nonzero;stroke:none;stroke-width:0.03527778"
         d="m -32.026124,74.365343 -0.1778,-0.133 1.55187,-2.07151 0.1778,0.133 -1.55187,2.07151" />
      <path
         id="path4788"
         style="fill:#ffffff;fill-opacity:1;fill-rule:nonzero;stroke:none;stroke-width:0.03527778"
         d="m -29.892524,76.034333 -0.168627,-0.14287 1.671814,-1.97626 0.16898,0.14322 -1.672167,1.97591" />
      <path
         id="path4790"
         style="fill:#ffffff;fill-opacity:1;fill-rule:nonzero;stroke:none;stroke-width:0.03527778"
         d="m -27.890157,77.864193 -0.160161,-0.15311 1.785056,-1.8736 0.160514,0.15311 -1.785409,1.8736" />
      <path
         id="path4792"
         style="fill:#ffffff;fill-opacity:1;fill-rule:nonzero;stroke:none;stroke-width:0.03527778"
         d="m -25.997151,79.801293 -0.151695,-0.16157 1.894064,-1.76565 0.151695,0.16192 -1.894064,1.7653" />
      <path
         id="path4794"
         style="fill:#ffffff;fill-opacity:1;fill-rule:nonzero;stroke:none;stroke-width:0.03527778"
         d="m -24.177523,81.810723 -0.141464,-0.1704 1.994606,-1.64817 0.141816,0.17003 -1.994958,1.64854" />
      <path
         id="path4796"
         style="fill:#ffffff;fill-opacity:1;fill-rule:nonzero;stroke:none;stroke-width:0.03527778"
         d="m -22.556862,83.986303 -0.131233,-0.17922 2.089503,-1.52858 0.131586,0.17921 -2.089856,1.52859" />
      <path
         id="path4798"
         style="fill:#ffffff;fill-opacity:1;fill-rule:nonzero;stroke:none;stroke-width:0.03527778"
         d="m -22.426687,84.159513 -0.130175,-0.17886 2.095853,-1.51835 0.130528,0.17921 -2.096206,1.518" />
      <path
         id="path4800"
         style="fill:#ffffff;fill-opacity:1;fill-rule:nonzero;stroke:none;stroke-width:0.03527778"
         d="m -20.905509,86.401773 -0.119945,-0.18768 2.182637,-1.39171 0.119944,0.18803 -2.182636,1.39136" />
      <path
         id="path4802"
         style="fill:#ffffff;fill-opacity:1;fill-rule:nonzero;stroke:none;stroke-width:0.03527778"
         d="m -19.503923,88.720223 -0.10795,-0.19367 2.262011,-1.25801 0.108303,0.19368 -2.262364,1.258" />
      <path
         id="path4804"
         style="fill:#ffffff;fill-opacity:1;fill-rule:nonzero;stroke:none;stroke-width:0.03527778"
         d="m -18.295306,91.145573 -0.09666,-0.19897 2.333625,-1.12113 0.09666,0.19897 -2.333625,1.12113" />
      <path
         id="path4806"
         style="fill:#ffffff;fill-opacity:1;fill-rule:nonzero;stroke:none;stroke-width:0.03527778"
         d="m -17.174178,93.611493 -0.08396,-0.20532 2.396066,-0.97896 0.08361,0.20496 -2.395714,0.97932" />
      <path
         id="path4808"
         style="fill:#ffffff;fill-opacity:1;fill-rule:nonzero;stroke:none;stroke-width:0.03527778"
         d="m -16.249548,96.158893 -0.07091,-0.20955 2.450747,-0.83326 0.07056,0.20955 -2.450395,0.83326" />
      <path
         id="path4810"
         style="fill:#ffffff;fill-opacity:1;fill-rule:nonzero;stroke:none;stroke-width:0.03527778"
         d="m -15.46885,98.751461 -0.05927,-0.21379 2.496961,-0.68474 0.05927,0.21379 -2.496961,0.68474" />
      <path
         id="path4812"
         style="fill:#ffffff;fill-opacity:1;fill-rule:nonzero;stroke:none;stroke-width:0.03527778"
         d="m -14.799278,101.37754 -0.04657,-0.21661 2.533298,-0.53305 0.04621,0.21661 -2.532944,0.53305" />
      <path
         id="path4814"
         style="fill:#ffffff;fill-opacity:1;fill-rule:nonzero;stroke:none;stroke-width:0.03527778"
         d="m -14.371712,104.05441 -0.03351,-0.21942 2.560108,-0.38136 0.03316,0.21943 -2.559756,0.38135" />
      <path
         id="path4816"
         style="fill:#ffffff;fill-opacity:1;fill-rule:nonzero;stroke:none;stroke-width:0.03527778"
         d="m -14.027753,106.74082 -0.02046,-0.22119 2.578805,-0.2279 0.02011,0.22084 -2.578453,0.22825" />
      <path
         id="path4818"
         style="fill:#ffffff;fill-opacity:1;fill-rule:nonzero;stroke:none;stroke-width:0.03527778"
         d="m -13.898636,109.45156 -0.0074,-0.2226 2.587978,-0.0765 0.0074,0.2226 -2.587977,0.0765" />
      <path
         id="path4820"
         style="fill:#ffffff;fill-opacity:1;fill-rule:nonzero;stroke:none;stroke-width:0.03527778"
         d="m -11.318067,112.23498 -2.587978,-0.0762 0.0074,-0.2226 2.587977,0.0762 -0.0074,0.2226" />
      <path
         id="path4822"
         style="fill:#ffffff;fill-opacity:1;fill-rule:nonzero;stroke:none;stroke-width:0.03527778"
         d="m -11.469409,115.09636 -2.578805,-0.2286 0.02046,-0.22084 2.578453,0.22825 -0.02011,0.22119" />
      <path
         id="path4824"
         style="fill:#ffffff;fill-opacity:1;fill-rule:nonzero;stroke:none;stroke-width:0.03527778"
         d="m -11.845117,117.9341 -2.560108,-0.38135 0.03351,-0.21943 2.559756,0.38136 -0.03316,0.21942" />
      <path
         id="path4826"
         style="fill:#ffffff;fill-opacity:1;fill-rule:nonzero;stroke:none;stroke-width:0.03527778"
         d="m -12.312547,120.7595 -2.533298,-0.53269 0.04657,-0.21696 2.532944,0.53305 -0.04621,0.2166" />
      <path
         id="path4828"
         style="fill:#ffffff;fill-opacity:1;fill-rule:nonzero;stroke:none;stroke-width:0.03527778"
         d="m -13.031156,123.5348 -2.496961,-0.68474 0.05927,-0.21378 2.496961,0.68474 -0.05927,0.21378" />
      <path
         id="path4830"
         style="fill:#ffffff;fill-opacity:1;fill-rule:nonzero;stroke:none;stroke-width:0.03527778"
         d="m -13.869709,126.2713 -2.450747,-0.83326 0.07091,-0.20955 2.450395,0.83361 -0.07056,0.2092" />
      <path
         id="path4832"
         style="fill:#ffffff;fill-opacity:1;fill-rule:nonzero;stroke:none;stroke-width:0.03527778"
         d="m -14.862073,128.96053 -2.396066,-0.97931 0.08396,-0.20532 2.395714,0.97966 -0.08361,0.20497" />
      <path
         id="path4834"
         style="fill:#ffffff;fill-opacity:1;fill-rule:nonzero;stroke:none;stroke-width:0.03527778"
         d="m -16.058342,131.56226 -2.333625,-1.12077 0.09666,-0.19967 2.333625,1.12112 -0.09666,0.19932" />
      <path
         id="path4836"
         style="fill:#ffffff;fill-opacity:1;fill-rule:nonzero;stroke:none;stroke-width:0.03527778"
         d="m -17.349862,134.11955 -2.262011,-1.25871 0.10795,-0.19332 2.262364,1.25835 -0.108303,0.19368" />
      <path
         id="path4838"
         style="fill:#ffffff;fill-opacity:1;fill-rule:nonzero;stroke:none;stroke-width:0.03527778"
         d="m -18.842817,136.565 -2.182637,-1.391 0.119945,-0.18768 2.182636,1.39101 -0.119944,0.18767" />
      <path
         id="path4840"
         style="fill:#ffffff;fill-opacity:1;fill-rule:nonzero;stroke:none;stroke-width:0.03527778"
         d="m -20.461009,138.92544 -2.095853,-1.51835 0.130175,-0.17922 2.096206,1.51871 -0.130528,0.17886" />
      <path
         id="path4842"
         style="fill:#ffffff;fill-opacity:1;fill-rule:nonzero;stroke:none;stroke-width:0.03527778"
         d="m -20.598592,139.10889 -2.089503,-1.52824 0.131233,-0.17921 2.089856,1.52823 -0.131586,0.17922" />
      <path
         id="path4844"
         style="fill:#ffffff;fill-opacity:1;fill-rule:nonzero;stroke:none;stroke-width:0.03527778"
         d="m -22.324381,141.39559 -1.994606,-1.64818 0.141464,-0.17074 1.994958,1.64853 -0.141816,0.17039" />
      <path
         id="path4846"
         style="fill:#ffffff;fill-opacity:1;fill-rule:nonzero;stroke:none;stroke-width:0.03527778"
         d="m -24.254782,143.51332 -1.894064,-1.76495 0.151695,-0.16193 1.894064,1.76495 -0.151695,0.16193" />
      <path
         id="path4848"
         style="fill:#ffffff;fill-opacity:1;fill-rule:nonzero;stroke:none;stroke-width:0.03527778"
         d="m -26.265262,145.55026 -1.785056,-1.87361 0.160161,-0.1531 1.785409,1.8736 -0.160514,0.15311" />
      <path
         id="path4850"
         style="fill:#ffffff;fill-opacity:1;fill-rule:nonzero;stroke:none;stroke-width:0.03527778"
         d="m -28.389337,147.47289 -1.671814,-1.97626 0.168627,-0.14428 1.672167,1.97626 -0.16898,0.14428" />
      <path
         id="path4852"
         style="fill:#ffffff;fill-opacity:1;fill-rule:nonzero;stroke:none;stroke-width:0.03527778"
         d="m -30.652054,149.22691 -1.55187,-2.07152 0.1778,-0.13299 1.55187,2.07154 -0.1778,0.13297" />
      <path
         id="path4854"
         style="fill:#ffffff;fill-opacity:1;fill-rule:nonzero;stroke:none;stroke-width:0.03527778"
         d="m -32.979682,150.89516 -1.425575,-2.16101 0.184503,-0.12143 1.425927,2.16105 -0.184855,0.12139" />
      <path
         id="path4856"
         style="fill:#ffffff;fill-opacity:1;fill-rule:nonzero;stroke:none;stroke-width:0.03527778"
         d="m -35.431841,152.37725 -1.293989,-2.24194 0.191912,-0.10968 1.294341,2.24222 -0.192264,0.1094" />
      <path
         id="path4858"
         style="fill:#ffffff;fill-opacity:1;fill-rule:nonzero;stroke:none;stroke-width:0.03527778"
         d="m -37.958082,153.72235 -1.158519,-2.31591 0.19755,-0.0982 1.158524,2.31596 -0.197555,0.0981" />
      <path
         id="path4860"
         style="fill:#ffffff;fill-opacity:1;fill-rule:nonzero;stroke:none;stroke-width:0.03527778"
         d="m -40.543241,154.95916 -1.01776,-2.38087 0.20355,-0.0864 1.01777,2.38058 -0.20356,0.0867" />
      <path
         id="path4862"
         style="fill:#ffffff;fill-opacity:1;fill-rule:nonzero;stroke:none;stroke-width:0.03527778"
         d="m -43.230341,155.95713 -0.87313,-2.43692 0.20955,-0.0751 0.87313,2.43691 -0.20955,0.0751" />
      <path
         id="path4864"
         style="fill:#ffffff;fill-opacity:1;fill-rule:nonzero;stroke:none;stroke-width:0.03527778"
         d="m -45.948486,156.85573 -0.72496,-2.48458 0.21237,-0.064 0.72531,2.48504 -0.21272,0.0635" />
      <path
         id="path4866"
         style="fill:#ffffff;fill-opacity:1;fill-rule:nonzero;stroke:none;stroke-width:0.03527778"
         d="m -48.726266,157.56241 -0.57432,-2.52416 0.21696,-0.0488 0.57432,2.52346 -0.21696,0.0495" />
      <path
         id="path4868"
         style="fill:#ffffff;fill-opacity:1;fill-rule:nonzero;stroke:none;stroke-width:0.03527778"
         d="m -51.539666,158.09225 -0.42263,-2.55418 0.21978,-0.0374 0.42263,2.55407 -0.21978,0.0375" />
      <path
         id="path4870"
         style="fill:#ffffff;fill-opacity:1;fill-rule:nonzero;stroke:none;stroke-width:0.03527778"
         d="m -54.373176,158.51696 -0.26917,-2.57571 0.22084,-0.0229 0.26917,2.57528 -0.22084,0.0233" />
      <path
         id="path4872"
         style="fill:#ffffff;fill-opacity:1;fill-rule:nonzero;stroke:none;stroke-width:0.03527778"
         d="m -57.232796,158.67006 -0.11677,-2.58589 0.22084,-0.008 0.11712,2.58575 -0.22119,0.009" />
      <path
         id="path4874"
         style="fill:#ffffff;fill-opacity:1;fill-rule:nonzero;stroke:none;stroke-width:0.03527778"
         d="m -59.871926,158.74517 -0.2226,-0.003 0.0353,-2.58908 0.2226,0.003 -0.0353,2.58865" />
      <path
         id="path4876"
         style="fill:#ffffff;fill-opacity:1;fill-rule:nonzero;stroke:none;stroke-width:0.03527778"
         d="m -62.733656,158.60833 -0.22119,-0.0176 0.18803,-2.58163 0.22084,0.0172 -0.18768,2.58202" />
      <path
         id="path4878"
         style="fill:#ffffff;fill-opacity:1;fill-rule:nonzero;stroke:none;stroke-width:0.03527778"
         d="m -65.580926,158.32183 -0.21943,-0.0289 0.34008,-2.56674 0.21943,0.0289 -0.34008,2.56674" />
      <path
         id="path4880"
         style="fill:#ffffff;fill-opacity:1;fill-rule:nonzero;stroke:none;stroke-width:0.03527778"
         d="m -68.414436,157.89575 -0.21802,-0.0434 0.49248,-2.54067 0.21801,0.043 -0.49247,2.54109" />
      <path
         id="path4882"
         style="fill:#ffffff;fill-opacity:1;fill-rule:nonzero;stroke:none;stroke-width:0.03527778"
         d="m -71.202086,157.23704 -0.2152,-0.0547 0.64453,-2.50638 0.21519,0.0546 -0.64452,2.50652" />
      <path
         id="path4884"
         style="fill:#ffffff;fill-opacity:1;fill-rule:nonzero;stroke:none;stroke-width:0.03527778"
         d="m -73.965396,156.48464 -0.21061,-0.0696 0.79375,-2.46296 0.21061,0.0694 -0.79375,2.46313" />
      <path
         id="path4886"
         style="fill:#ffffff;fill-opacity:1;fill-rule:nonzero;stroke:none;stroke-width:0.03527778"
         d="m -74.181296,156.40622 -0.21096,-0.069 0.80539,-2.46035 0.21061,0.0696 -0.80504,2.45978" />
      <path
         id="path4888"
         style="fill:#ffffff;fill-opacity:1;fill-rule:nonzero;stroke:none;stroke-width:0.03527778"
         d="m -76.875816,155.42698 -0.20637,-0.0811 0.95214,-2.40799 0.20673,0.081 -0.9525,2.4081" />
      <path
         id="path4890"
         style="fill:#ffffff;fill-opacity:1;fill-rule:nonzero;stroke:none;stroke-width:0.03527778"
         d="m -79.503306,154.29135 -0.20073,-0.0923 1.09432,-2.34598 0.20073,0.0923 -1.09432,2.34597" />
      <path
         id="path4892"
         style="fill:#ffffff;fill-opacity:1;fill-rule:nonzero;stroke:none;stroke-width:0.03527778"
         d="m -82.087406,153.05345 -0.19543,-0.10693 1.23295,-2.2764 0.19509,0.10654 -1.23261,2.27679" />
      <path
         id="path4894"
         style="fill:#ffffff;fill-opacity:1;fill-rule:nonzero;stroke:none;stroke-width:0.03527778"
         d="m -84.544146,151.5788 -0.18768,-0.11849 1.36666,-2.1988 0.18768,0.1185 -1.36666,2.19879" />
      <path
         id="path4896"
         style="fill:#ffffff;fill-opacity:1;fill-rule:nonzero;stroke:none;stroke-width:0.03527778"
         d="m -86.941626,150.01254 -0.18062,-0.12707 1.49543,-2.11342 0.18026,0.12735 -1.49507,2.11314" />
      <path
         id="path4898"
         style="fill:#ffffff;fill-opacity:1;fill-rule:nonzero;stroke:none;stroke-width:0.03527778"
         d="m -89.239266,148.30224 -0.17321,-0.13861 1.61713,-2.02106 0.17321,0.13864 -1.61713,2.02103" />
      <path
         id="path4900"
         style="fill:#ffffff;fill-opacity:1;fill-rule:nonzero;stroke:none;stroke-width:0.03527778"
         d="m -91.408846,146.43467 -0.16475,-0.14746 1.73426,-1.92264 0.16474,0.14711 -1.73425,1.92299" />
      <path
         id="path4902"
         style="fill:#ffffff;fill-opacity:1;fill-rule:nonzero;stroke:none;stroke-width:0.03527778"
         d="m -93.506116,144.48557 -0.15628,-0.15875 1.84468,-1.81575 0.15593,0.15875 -1.84433,1.81575" />
      <path
         id="path4904"
         style="fill:#ffffff;fill-opacity:1;fill-rule:nonzero;stroke:none;stroke-width:0.03527778"
         d="m -95.439336,142.37067 -0.1457,-0.16722 1.94945,-1.70356 0.14605,0.16757 -1.9498,1.70321" />
      <path
         id="path4906"
         style="fill:#ffffff;fill-opacity:1;fill-rule:nonzero;stroke:none;stroke-width:0.03527778"
         d="m -97.260026,140.16334 -0.13617,-0.17639 2.04717,-1.58433 0.13582,0.17604 -2.04682,1.58468" />
      <path
         id="path4908"
         style="fill:#ffffff;fill-opacity:1;fill-rule:nonzero;stroke:none;stroke-width:0.03527778"
         d="m -98.980876,137.87064 -0.12523,-0.18169 2.13713,-1.4605 0.12558,0.18204 -2.13748,1.46015" />
      <path
         id="path4910"
         style="fill:#ffffff;fill-opacity:1;fill-rule:nonzero;stroke:none;stroke-width:0.03527778"
         d="m -100.49535,135.44141 -0.11395,-0.19086 2.220394,-1.33067 0.11394,0.19085 -2.220384,1.33068" />
      <path
         id="path4912"
         style="fill:#ffffff;fill-opacity:1;fill-rule:nonzero;stroke:none;stroke-width:0.03527778"
         d="m -101.91669,132.95503 -0.10266,-0.1965 2.296234,-1.19627 0.10266,0.1965 -2.296234,1.19627" />
      <path
         id="path4914"
         style="fill:#ffffff;fill-opacity:1;fill-rule:nonzero;stroke:none;stroke-width:0.03527778"
         d="m -103.16623,130.37622 -0.091,-0.20214 2.36326,-1.05586 0.091,0.20214 -2.36326,1.05586" />
      <path
         id="path4916"
         style="fill:#ffffff;fill-opacity:1;fill-rule:nonzero;stroke:none;stroke-width:0.03527778"
         d="m -104.24573,127.72439 -0.0776,-0.20814 2.42252,-0.91157 0.078,0.20814 -2.42288,0.91157" />
      <path
         id="path4918"
         style="fill:#ffffff;fill-opacity:1;fill-rule:nonzero;stroke:none;stroke-width:0.03527778"
         d="m -105.22928,125.03235 -0.0649,-0.21273 2.47298,-0.76412 0.0653,0.21238 -2.47333,0.76447" />
      <path
         id="path4920"
         style="fill:#ffffff;fill-opacity:1;fill-rule:nonzero;stroke:none;stroke-width:0.03527778"
         d="m -105.95035,122.25845 -0.0533,-0.21519 2.5146,-0.61525 0.0533,0.21485 -2.5146,0.61559" />
      <path
         id="path4922"
         style="fill:#ffffff;fill-opacity:1;fill-rule:nonzero;stroke:none;stroke-width:0.03527778"
         d="m -106.56772,119.4634 -0.0406,-0.21837 2.54705,-0.46355 0.0402,0.21801 -2.54671,0.46391" />
      <path
         id="path4924"
         style="fill:#ffffff;fill-opacity:1;fill-rule:nonzero;stroke:none;stroke-width:0.03527778"
         d="m -107.00763,116.63094 -0.0257,-0.21943 2.56963,-0.31079 0.0261,0.21978 -2.56999,0.31044" />
      <path
         id="path4926"
         style="fill:#ffffff;fill-opacity:1;fill-rule:nonzero;stroke:none;stroke-width:0.03527778"
         d="m -107.25175,113.78015 -0.0127,-0.2212 2.58339,-0.15875 0.013,0.2212 -2.58374,0.15875" />
      <path
         id="path4928"
         style="fill:#ffffff;fill-opacity:1;fill-rule:nonzero;stroke:none;stroke-width:0.03527778"
         d="m -107.40133,110.91912 v -0.22261 l 2.58904,-0.006 v 0.2226 l -2.58904,0.006" />
      <g
         id="g6847"
         transform="translate(6.4255952,-9.0714286)" />
      <path
         id="path5024"
         style="fill:#ffffff;fill-opacity:1;fill-rule:nonzero;stroke:none;stroke-width:0.03527778"
         d="m -18.328467,110.37019 -27.070039,6.37505 -6.89364,1.62807 -6.81919,-7.76605 v -0.10407 l 40.457608,-0.133 0.01446,-0.0593 0.310798,0.0593" />
      <path
         id="path5026"
         style="fill:#ffffff;fill-opacity:1;fill-rule:nonzero;stroke:none;stroke-width:0.03527778"
         d="m -33.697585,86.465273 -12.233621,18.978737 -6.3313,-1.1236 18.564921,-17.855137" />
      <path
         id="path5030"
         style="fill:none;fill-opacity:1;fill-rule:nonzero;stroke:none;stroke-width:0.03527778"
         d="m -45.339246,116.98196 10.902239,18.66864 -17.855139,-17.27729 6.89364,-1.62807 0.0593,0.23672" />
      <path
         id="path5034"
         style="fill:#ffffff;fill-opacity:1;fill-rule:nonzero;stroke:none;stroke-width:0.03527778"
         d="m -53.371996,98.048021 1.10949,6.272389 -6.84883,6.09459 0.3556,-42.810287 5.38374,30.443308" />
      <path
         id="path5048"
         style="fill:#ffffff;fill-opacity:1;fill-rule:nonzero;stroke:none;stroke-width:0.03527778"
         d="m -65.649366,97.633511 0.39899,0.0896 -1.44956,6.759219 -17.61808,-18.919817 18.66865,12.070998" />
      <path
         id="path5050"
         style="fill:#ffffff;fill-opacity:1;fill-rule:nonzero;stroke:none;stroke-width:0.03527778"
         d="m -66.345046,117.98773 -18.74238,17.66287 11.45011,-19.05247 0.0296,-0.16333 7.26264,1.55293" />
      <path
         id="path5054"
         style="fill:#ffffff;fill-opacity:1;fill-rule:nonzero;stroke:none;stroke-width:0.03527778"
         d="m -100.23676,110.64536 33.986614,7.24888 6.78709,35.66936 7.07602,-35.28201 0.0695,-0.0159 6.89364,-1.62806 26.557453,-6.2544 -33.492363,-5.96759 -0.0131,-0.0762 -6.39516,-36.158667 -7.83943,36.397147 -0.0737,0.0131 z m 40.767704,44.07401 -6.97159,-36.63851 -7.19032,-1.53811 -27.755504,-5.91609 0.55527,-0.0995 34.038124,-6.14115 1.43475,-6.686559 6.61317,-30.671198 6.5786,37.196537 6.25511,1.11054 28.11532,5.0232 -0.506941,0.11995 -33.894879,7.98653 -1.18287,5.93514 -6.08824,30.3192" />
      <path
         id="path5056"
         style="fill:#ffffff;fill-opacity:1;fill-rule:nonzero;stroke:none;stroke-width:0.03527778"
         d="m -100.81144,110.74731 v -0.22225 l 82.157006,-0.26599 0.0014,0.2226 -82.158416,0.26564" />
      <path
         id="path5058"
         style="fill:#ffffff;fill-opacity:1;fill-rule:nonzero;stroke:none;stroke-width:0.03527778"
         d="m -59.354756,154.14251 -0.22225,-0.003 0.70979,-86.535617 0.22225,0.001 -0.70979,86.537097" />
      <path
         id="path5060"
         style="fill:#ffffff;fill-opacity:1;fill-rule:nonzero;stroke:none;stroke-width:0.03527778"
         d="m -59.269376,110.58962 -7.49971,-6.02086 0.13829,-0.17321 7.4997,6.02086 -0.13828,0.17321" />
      <path
         id="path5062"
         style="fill:#ffffff;fill-opacity:1;fill-rule:nonzero;stroke:none;stroke-width:0.03527778"
         d="m -59.122276,110.58186 -0.15592,-0.15734 0.0889,-0.0882 6.85306,-6.09918 0.14746,0.16616 -6.9335,6.17855" />
      <path
         id="path5064"
         style="fill:#ffffff;fill-opacity:1;fill-rule:nonzero;stroke:none;stroke-width:0.03527778"
         d="m -66.264966,118.06428 -0.16051,-0.15346 7.14481,-7.48453 0.16051,0.15345 -7.14481,7.48454" />
      <path
         id="path5066"
         style="fill:#ffffff;fill-opacity:1;fill-rule:nonzero;stroke:none;stroke-width:0.03527778"
         d="m -52.375046,118.44634 -6.9095,-7.87118 0.16862,-0.14429 0.0889,0.10407 6.81779,7.76535 -0.16581,0.14605" />
      <path
         id="path5068"
         style="fill:#ffffff;fill-opacity:1;fill-rule:nonzero;stroke:none;stroke-width:0.03527778"
         d="m -45.868056,105.55019 -0.18521,-0.12276 0.0296,-0.0444 11.97927,-18.584687 -19.22638,11.330518 -0.11289,-0.19086 20.032832,-11.805708 -12.517252,19.417947" />
      <path
         id="path5070"
         style="fill:#ffffff;fill-opacity:1;fill-rule:nonzero;stroke:none;stroke-width:0.03527778"
         d="m -34.125857,135.96387 -0.367595,-0.21802 -19.038354,-11.27195 0.11289,-0.19085 18.670406,11.05429 -10.687046,-18.29964 0.19192,-0.11113 11.117779,19.0373" />
      <path
         id="path5072"
         style="fill:#ffffff;fill-opacity:1;fill-rule:nonzero;stroke:none;stroke-width:0.03527778"
         d="m -85.409506,135.97128 0.22683,-0.37853 11.45011,-19.05212 0.1905,0.1143 -11.22292,18.675 19.20628,-11.43106 0.1143,0.19085 -19.9651,11.88156" />
      <path
         id="path5074"
         style="fill:#ffffff;fill-opacity:1;fill-rule:nonzero;stroke:none;stroke-width:0.03527778"
         d="m -73.393896,105.58582 -11.23456,-20.356337 19.03906,12.310538 -0.11994,0.18627 -18.29788,-11.831108 10.80664,19.583747 -0.19332,0.10689" />
      <path
         id="path5076"
         style="fill:#ffffff;fill-opacity:1;fill-rule:nonzero;stroke:none;stroke-width:0.03527778"
         d="m -52.185956,104.40049 -0.1531,-0.16051 18.564918,-17.854797 0.153459,0.16017 -18.565277,17.855137" />
      <path
         id="path5078"
         style="fill:#ffffff;fill-opacity:1;fill-rule:nonzero;stroke:none;stroke-width:0.03527778"
         d="m -85.011576,135.73139 -0.15169,-0.16157 18.74202,-17.66323 0.15205,0.16157 -18.74238,17.66323" />
      <path
         id="path5080"
         style="fill:#ffffff;fill-opacity:1;fill-rule:nonzero;stroke:none;stroke-width:0.03527778"
         d="m -34.514618,135.72998 -17.854778,-17.27729 0.15451,-0.15911 17.855137,17.27765 -0.154869,0.15875" />
      <path
         id="path5082"
         style="fill:#ffffff;fill-opacity:1;fill-rule:nonzero;stroke:none;stroke-width:0.03527778"
         d="m -66.780726,104.55818 -17.61843,-18.919827 0.16193,-0.15204 17.61843,18.919817 -0.16193,0.15205" />
      <path
         id="path5264"
         style="fill:#ffffff;fill-opacity:1;fill-rule:nonzero;stroke:none;stroke-width:0.03527778"
         d="m -62.423916,56.208226 c 0.45226,-0.0462 0.74259,-0.14887 0.8703,-0.30762 0.1277,-0.15734 0.19226,-0.52423 0.19226,-1.10208 v -4.81648 l -0.14957,-0.17639 c -0.16017,-0.18908 -0.29599,-0.3048 -0.40887,-0.3496 -0.11113,-0.0448 -0.2794,-0.0705 -0.50412,-0.0776 v -0.20249 h 1.86549 l 4.22133,5.23063 v -3.6329 c 0,-0.59831 -0.0889,-0.98672 -0.2667,-1.16734 -0.11747,-0.11677 -0.37747,-0.19192 -0.77999,-0.2279 v -0.20249 h 2.56858 v 0.20249 c -0.41663,0.043 -0.69392,0.14429 -0.83291,0.3048 -0.13829,0.16016 -0.20814,0.52705 -0.20814,1.0989 v 5.75663 h -0.18697 l -4.838,-5.99652 v 4.25909 c 0,0.59655 0.0875,0.9839 0.26212,1.16558 0.11395,0.11712 0.36865,0.19932 0.76341,0.2413 v 0.20214 h -2.56822 v -0.20214" />
      <path
         id="path5266"
         style="fill:#ffffff;fill-opacity:1;fill-rule:nonzero;stroke:none;stroke-width:0.03527778"
         d="m -119.18058,105.24645 v 0.20214 c -0.21731,0.007 -0.37253,0.0272 -0.46426,0.0593 -0.16404,0.0607 -0.24623,0.17039 -0.24623,0.33055 0,0.0709 0.0102,0.14041 0.0296,0.20814 0.0194,0.0681 0.049,0.15452 0.0882,0.26282 l 1.58186,4.11021 1.1557,-3.06422 -0.51223,-1.34056 c -0.096,-0.2413 -0.23954,-0.40464 -0.43251,-0.48683 -0.11324,-0.049 -0.2861,-0.0751 -0.51823,-0.0794 v -0.20214 h 2.92911 v 0.20214 c -0.27481,0.004 -0.46319,0.0229 -0.56656,0.0593 -0.16404,0.0607 -0.24518,0.18627 -0.24518,0.37253 0,0.0649 0.007,0.12136 0.0215,0.16898 0.0138,0.048 0.0497,0.14746 0.10689,0.29634 l 1.58045,4.10104 1.36807,-3.71122 c 0.0787,-0.2092 0.13159,-0.39723 0.15946,-0.56022 0.0183,-0.0924 0.0268,-0.16757 0.0268,-0.22401 0,-0.20355 -0.0956,-0.34396 -0.28822,-0.42333 -0.10689,-0.0448 -0.26635,-0.072 -0.48049,-0.0794 v -0.20214 h 2.1717 v 0.20214 c -0.19685,0.0289 -0.34642,0.0737 -0.44873,0.13441 -0.18556,0.10407 -0.32455,0.28152 -0.41698,0.53446 l -1.14547,3.26037 -0.44133,1.25801 -0.6925,1.97344 h -0.16933 l -0.47802,-1.25095 -1.26612,-3.36903 -1.67922,4.61998 h -0.1658 l -0.81422,-2.26519 -0.92286,-2.56434 c -0.37924,-1.05587 -0.64559,-1.70427 -0.79622,-1.94416 -0.15134,-0.23989 -0.38735,-0.3683 -0.70803,-0.387 v -0.20214 h 2.67935" />
      <path
         id="path5268"
         style="fill:#ffffff;fill-opacity:1;fill-rule:nonzero;stroke:none;stroke-width:0.03527778"
         d="m -4.0099218,113.00227 c 0.402519,-0.0434 0.662517,-0.11395 0.781756,-0.21519 0.119944,-0.1009 0.179916,-0.35525 0.179916,-0.76871 v -4.86233 c 0,-0.38735 -0.05927,-0.64135 -0.176036,-0.7613 -0.117828,-0.11853 -0.379942,-0.19191 -0.785636,-0.22084 V 105.97 h 5.809545 l 0.03669,1.56457 h -0.277284 c -0.09278,-0.4826 -0.231069,-0.79446 -0.41663,-0.93451 -0.184856,-0.14182 -0.597253,-0.21414 -1.238603,-0.21414 h -1.488017 c -0.161219,0 -0.259997,0.0261 -0.297744,0.078 -0.0374,0.0508 -0.05609,0.14887 -0.05609,0.2921 v 2.43981 h 1.686983 c 0.46602,0 0.763764,-0.0709 0.89147,-0.20814 0.128764,-0.13829 0.231775,-0.41734 0.310092,-0.83926 h 0.256116 v 2.52554 h -0.256116 c -0.08184,-0.42369 -0.187325,-0.70415 -0.315031,-0.84103 -0.128764,-0.13582 -0.423333,-0.20496 -0.886531,-0.20496 h -1.686983 v 2.70722 c 0,0.2166 0.06879,0.34501 0.20567,0.38382 0.13723,0.0392 0.548216,0.0593 1.232252,0.0593 0.741892,0 1.289403,-0.0808 1.641828,-0.24272 0.353131,-0.16298 0.670278,-0.55456 0.952148,-1.17721 h 0.303741 l -0.496711,1.84608 h -5.910792 v -0.20214" />
      <path
         id="path5270"
         style="fill:#ffffff;fill-opacity:1;fill-rule:nonzero;stroke:none;stroke-width:0.03527778"
         d="m -61.135926,168.09734 c 0.18485,0.49142 0.40146,0.88265 0.65052,1.17479 0.43356,0.50973 0.97155,0.76411 1.61502,0.76411 0.34854,0 0.65017,-0.10981 0.90381,-0.33058 0.25436,-0.22116 0.38136,-0.52889 0.38136,-0.92492 0,-0.35528 -0.12771,-0.66435 -0.38347,-0.92854 -0.16757,-0.16796 -0.51859,-0.41769 -1.05516,-0.75283 l -0.93275,-0.58247 c -0.28116,-0.176 -0.50447,-0.35804 -0.67239,-0.53869 -0.30903,-0.34506 -0.46426,-0.72637 -0.46426,-1.14265 0,-0.55206 0.18345,-1.0111 0.54999,-1.37792 0.36653,-0.36695 0.85231,-0.54927 1.45803,-0.54927 0.24906,0 0.54892,0.061 0.89993,0.18341 0.35031,0.12305 0.54998,0.18521 0.60008,0.18521 0.13511,0 0.22895,-0.0317 0.28046,-0.097 0.0515,-0.0635 0.0917,-0.15448 0.11994,-0.2716 h 0.22437 l 0.24059,2.32763 h -0.26141 c -0.1785,-0.70101 -0.4639,-1.19035 -0.8576,-1.46788 -0.39335,-0.27767 -0.78211,-0.41603 -1.16628,-0.41603 -0.29916,0 -0.55986,0.0882 -0.78282,0.26279 -0.22189,0.17639 -0.33302,0.42167 -0.33302,0.73519 0,0.28194 0.085,0.52144 0.25541,0.71973 0.17075,0.20356 0.43498,0.41589 0.79446,0.63529 l 0.96026,0.59379 c 0.60148,0.36971 1.02482,0.7094 1.27176,1.01988 0.24342,0.31214 0.36372,0.68337 0.36372,1.11083 0,0.57189 -0.21555,1.05202 -0.64735,1.43619 -0.43286,0.38421 -0.98531,0.57616 -1.65876,0.57616 -0.33796,0 -0.69109,-0.065 -1.05975,-0.19195 -0.36794,-0.12869 -0.57891,-0.19194 -0.63217,-0.19194 -0.12877,0 -0.21485,0.0388 -0.25965,0.11684 -0.0441,0.0794 -0.0737,0.16192 -0.0871,0.25149 h -0.2413 l -0.3249,-2.32904 h 0.25047" />
      <path
         id="path5040"
         style="fill:#ffffff;fill-opacity:1;fill-rule:nonzero;stroke:none;stroke-width:0.03527778"
         d="m -66.345046,117.98773 7.14481,-7.48454 0.0889,0.10407 -0.35454,43.53388 -5.7404,-30.20629 -1.13877,-5.94712" />
    </g>
  </g>
</svg>
