<?xml version="1.0" encoding="UTF-8" standalone="no"?>
<!-- Created with Inkscape (http://www.inkscape.org/) -->

<svg
   xmlns:dc="http://purl.org/dc/elements/1.1/"
   xmlns:cc="http://creativecommons.org/ns#"
   xmlns:rdf="http://www.w3.org/1999/02/22-rdf-syntax-ns#"
   xmlns:svg="http://www.w3.org/2000/svg"
   xmlns="http://www.w3.org/2000/svg"
   xmlns:sodipodi="http://sodipodi.sourceforge.net/DTD/sodipodi-0.dtd"
   xmlns:inkscape="http://www.inkscape.org/namespaces/inkscape"
   version="1.1"
   id="svg2"
   xml:space="preserve"
   width="100%"
   height="100%"
   viewBox="0 0 262.34109 199.98705"
   sodipodi:docname="NN.svg"
   inkscape:version="0.92.0 unknown"><metadata
     id="metadata8"><rdf:RDF><cc:Work
         rdf:about=""><dc:format>image/svg+xml</dc:format><dc:type
           rdf:resource="http://purl.org/dc/dcmitype/StillImage" /><dc:title></dc:title></cc:Work></rdf:RDF></metadata><defs
     id="defs6" /><sodipodi:namedview
     pagecolor="#ffffff"
     bordercolor="#666666"
     borderopacity="1"
     objecttolerance="10"
     gridtolerance="10"
     guidetolerance="10"
     inkscape:pageopacity="0"
     inkscape:pageshadow="2"
     inkscape:window-width="1366"
     inkscape:window-height="744"
     id="namedview4"
     showgrid="false"
     inkscape:zoom="1.1168666"
     inkscape:cx="-36.709846"
     inkscape:cy="99.993523"
     inkscape:window-x="0"
     inkscape:window-y="24"
     inkscape:window-maximized="1"
     inkscape:current-layer="g10" /><g
     id="g10"
     inkscape:groupmode="layer"
     inkscape:label="NN1"
     transform="matrix(1.3333333,0,0,-1.3333333,0,199.98704)"><g
       id="g12"><g
         id="g14"
         transform="matrix(1,0,0,-0.809283,0,149.99028)"><path
           d="m 40.367,160.062 c 0,13.462 -8.836,24.375 -19.734,24.375 -10.899,0 -19.735,-10.913 -19.735,-24.375 0,-13.467 8.836,-24.381 19.735,-24.381 10.898,0 19.734,10.914 19.734,24.381 z"
           style="fill:#ffffff;fill-opacity:1;fill-rule:nonzero;stroke:#234c7d;stroke-width:1.80613303;stroke-linecap:butt;stroke-linejoin:miter;stroke-miterlimit:4;stroke-dasharray:none;stroke-opacity:1"
           id="path16"
           inkscape:connector-curvature="0" /></g><g
         id="g18"
         transform="matrix(1,0,0,-0.809283,0,149.99028)"><path
           d="m 40.367,99.77 c 0,13.467 -8.836,24.38 -19.734,24.38 -10.899,0 -19.735,-10.913 -19.735,-24.38 0,-13.462 8.836,-24.375 19.735,-24.375 10.898,0 19.734,10.913 19.734,24.375 z"
           style="fill:#ffffff;fill-opacity:1;fill-rule:nonzero;stroke:#234c7d;stroke-width:1.80613303;stroke-linecap:butt;stroke-linejoin:miter;stroke-miterlimit:4;stroke-dasharray:none;stroke-opacity:1"
           id="path20"
           inkscape:connector-curvature="0" /></g><g
         id="g22"
         transform="matrix(1,0,0,-0.809283,0,149.99028)"><path
           d="m 40.793,40.009 c 0,13.462 -8.836,24.376 -19.734,24.376 -10.899,0 -19.735,-10.914 -19.735,-24.376 0,-13.466 8.836,-24.38 19.735,-24.38 10.898,0 19.734,10.914 19.734,24.38 z"
           style="fill:#ffffff;fill-opacity:1;fill-rule:nonzero;stroke:#234c7d;stroke-width:1.80613303;stroke-linecap:butt;stroke-linejoin:miter;stroke-miterlimit:4;stroke-dasharray:none;stroke-opacity:1"
           id="path24"
           inkscape:connector-curvature="0" /></g><path
         d="m 18.059,119.799 -1.391,3.301 c -0.051,0.136 -0.086,0.195 -0.086,0.211 0,0.105 0.285,0.418 0.98,0.484 0.168,0.016 0.333,0.031 0.333,0.32 0,0.196 -0.204,0.196 -0.25,0.196 -0.68,0 -1.395,-0.055 -2.09,-0.055 -0.418,0 -1.442,0.055 -1.86,0.055 -0.097,0 -0.3,0 -0.3,-0.332 0,-0.184 0.167,-0.184 0.382,-0.184 0.996,0 1.094,-0.168 1.246,-0.531 l 1.957,-4.633 -3.5,-3.766 -0.214,-0.183 c -0.813,-0.879 -1.598,-1.145 -2.442,-1.192 -0.215,-0.015 -0.367,-0.015 -0.367,-0.332 0,-0.015 0,-0.183 0.219,-0.183 0.496,0 1.039,0.054 1.558,0.054 0.614,0 1.266,-0.054 1.856,-0.054 0.105,0 0.305,0 0.305,0.332 0,0.168 -0.168,0.183 -0.2,0.183 -0.148,0.016 -0.668,0.047 -0.668,0.516 0,0.266 0.25,0.531 0.45,0.746 l 1.691,1.793 1.496,1.625 1.676,-3.965 c 0.066,-0.183 0.082,-0.199 0.082,-0.238 0,-0.129 -0.313,-0.41 -0.961,-0.477 -0.184,-0.015 -0.332,-0.035 -0.332,-0.32 0,-0.195 0.183,-0.195 0.246,-0.195 0.469,0 1.629,0.054 2.094,0.054 0.414,0 1.426,-0.054 1.84,-0.054 0.117,0 0.316,0 0.316,0.316 0,0.199 -0.164,0.199 -0.297,0.199 -1.109,0.016 -1.148,0.067 -1.426,0.727 -0.648,1.547 -1.761,4.133 -2.14,5.129 1.129,1.164 2.867,3.14 3.398,3.601 0.485,0.403 1.113,0.797 2.11,0.848 0.214,0.016 0.363,0.016 0.363,0.332 0,0.016 0,0.184 -0.215,0.184 -0.5,0 -1.047,-0.055 -1.563,-0.055 -0.613,0 -1.242,0.055 -1.839,0.055 -0.102,0 -0.317,0 -0.317,-0.332 0,-0.114 0.086,-0.168 0.203,-0.184 0.149,-0.016 0.664,-0.051 0.664,-0.512 0,-0.238 -0.183,-0.453 -0.32,-0.601 z"
         style="fill:#000000;fill-opacity:1;fill-rule:nonzero;stroke:none"
         id="path26"
         inkscape:connector-curvature="0" /><path
         d="m 27.648,117.877 v 0.129 l -0.003,0.008 v 0.047 l -0.004,0.011 v 0.004 l -0.004,0.012 v 0.008 l -0.004,0.011 -0.012,0.024 -0.008,0.012 -0.008,0.007 -0.003,0.012 -0.012,0.008 -0.012,0.004 -0.008,0.008 -0.015,0.004 -0.012,0.003 -0.016,0.004 h -0.015 l -0.008,0.004 h -0.012 l -0.004,0.004 h -0.043 l -0.011,0.004 h -0.129 c -0.746,-0.734 -1.797,-0.742 -2.278,-0.742 v -0.418 c 0.282,0 1.047,0 1.68,0.324 v -5.922 c 0,-0.383 0,-0.535 -1.16,-0.535 h -0.438 v -0.414 c 0.207,0.008 1.633,0.043 2.067,0.043 0.359,0 1.824,-0.035 2.074,-0.043 v 0.414 h -0.438 c -1.164,0 -1.164,0.152 -1.164,0.535 z"
         style="fill:#000000;fill-opacity:1;fill-rule:nonzero;stroke:none"
         id="path28"
         inkscape:connector-curvature="0" /><path
         d="m 18.082,72.768 -1.391,3.304 c -0.05,0.137 -0.082,0.196 -0.082,0.211 0,0.106 0.282,0.418 0.977,0.485 0.168,0.015 0.336,0.031 0.336,0.32 0,0.195 -0.203,0.195 -0.25,0.195 -0.684,0 -1.399,-0.054 -2.094,-0.054 -0.414,0 -1.441,0.054 -1.859,0.054 -0.094,0 -0.297,0 -0.297,-0.332 0,-0.183 0.164,-0.183 0.383,-0.183 0.996,0 1.09,-0.168 1.246,-0.532 l 1.953,-4.632 -3.5,-3.77 -0.215,-0.18 C 12.477,66.772 11.695,66.51 10.848,66.463 10.637,66.447 10.48,66.447 10.48,66.131 c 0,-0.016 0,-0.184 0.223,-0.184 0.492,0 1.039,0.055 1.555,0.055 0.617,0 1.265,-0.055 1.859,-0.055 0.102,0 0.301,0 0.301,0.332 0,0.168 -0.164,0.184 -0.199,0.184 -0.149,0.016 -0.664,0.047 -0.664,0.512 0,0.269 0.25,0.535 0.449,0.746 l 1.687,1.797 1.497,1.621 1.675,-3.961 c 0.067,-0.184 0.082,-0.203 0.082,-0.239 0,-0.128 -0.312,-0.41 -0.961,-0.476 -0.183,-0.016 -0.332,-0.035 -0.332,-0.32 0,-0.196 0.184,-0.196 0.25,-0.196 0.469,0 1.629,0.055 2.09,0.055 0.418,0 1.426,-0.055 1.844,-0.055 0.117,0 0.316,0 0.316,0.317 0,0.199 -0.168,0.199 -0.3,0.199 -1.11,0.016 -1.145,0.066 -1.426,0.726 -0.645,1.547 -1.758,4.133 -2.137,5.125 1.129,1.168 2.863,3.145 3.395,3.606 0.484,0.402 1.113,0.797 2.109,0.848 0.219,0.015 0.363,0.015 0.363,0.332 0,0.015 0,0.183 -0.211,0.183 -0.5,0 -1.047,-0.054 -1.562,-0.054 -0.613,0 -1.246,0.054 -1.844,0.054 -0.101,0 -0.312,0 -0.312,-0.332 0,-0.113 0.082,-0.168 0.199,-0.183 0.148,-0.016 0.668,-0.051 0.668,-0.516 0,-0.234 -0.184,-0.449 -0.321,-0.598 z"
         style="fill:#000000;fill-opacity:1;fill-rule:nonzero;stroke:none"
         id="path30"
         inkscape:connector-curvature="0" /><path
         d="m 29.648,65.584 h -0.394 c -0.035,-0.258 -0.152,-0.941 -0.305,-1.059 -0.09,-0.066 -0.98,-0.066 -1.144,-0.066 h -2.141 c 1.223,1.074 1.629,1.398 2.324,1.945 0.86,0.688 1.66,1.407 1.66,2.512 0,1.402 -1.226,2.262 -2.718,2.262 -1.434,0 -2.414,-1.012 -2.414,-2.074 0,-0.594 0.5,-0.657 0.621,-0.657 0.277,0 0.613,0.203 0.613,0.617 0,0.208 -0.086,0.614 -0.688,0.614 0.36,0.824 1.149,1.078 1.696,1.078 1.164,0 1.765,-0.902 1.765,-1.84 0,-1.012 -0.718,-1.812 -1.093,-2.23 L 24.637,63.92 c -0.121,-0.102 -0.121,-0.129 -0.121,-0.453 h 4.785 z"
         style="fill:#000000;fill-opacity:1;fill-rule:nonzero;stroke:none"
         id="path32"
         inkscape:connector-curvature="0" /><g
         id="g34"
         transform="matrix(1,0,0,-0.809283,0,149.99028)"><path
           d="m 129.469,101.546 c 0,13.462 -8.832,24.376 -19.731,24.376 -10.902,0 -19.734,-10.914 -19.734,-24.376 0,-13.466 8.832,-24.38 19.734,-24.38 10.899,0 19.731,10.914 19.731,24.38 z"
           style="fill:#ffffff;fill-opacity:1;fill-rule:nonzero;stroke:#f58e3a;stroke-width:1.80613303;stroke-linecap:butt;stroke-linejoin:miter;stroke-miterlimit:4;stroke-dasharray:none;stroke-opacity:1"
           id="path36"
           inkscape:connector-curvature="0" /></g><path
         d="m 16.496,19.068 h 4.633 c 0.23,0 0.547,0 0.547,0.332 0,0.336 -0.317,0.336 -0.547,0.336 h -4.633 v 4.649 c 0,0.226 0,0.547 -0.332,0.547 -0.328,0 -0.328,-0.321 -0.328,-0.547 v -4.649 h -4.645 c -0.238,0 -0.546,0 -0.546,-0.336 0,-0.332 0.308,-0.332 0.546,-0.332 h 4.645 v -4.644 c 0,-0.235 0,-0.551 0.328,-0.551 0.332,0 0.332,0.316 0.332,0.551 z"
         style="fill:#000000;fill-opacity:1;fill-rule:nonzero;stroke:none"
         id="path38"
         inkscape:connector-curvature="0" /><path
         d="m 27.5,25.877 v 0.133 l -0.004,0.015 v 0.063 L 27.492,26.1 v 0.011 l -0.004,0.024 -0.004,0.019 v 0.016 l -0.004,0.016 -0.007,0.019 -0.008,0.012 -0.004,0.012 -0.008,0.011 -0.012,0.012 -0.011,0.008 -0.012,0.012 -0.012,0.003 -0.031,0.016 h -0.008 l -0.012,0.004 -0.007,0.004 h -0.032 l -0.011,0.004 h -0.024 l -0.011,0.004 h -0.071 l -0.011,0.004 h -0.067 c -1.035,-1.063 -2.488,-1.063 -3.023,-1.063 v -0.516 c 0.332,0 1.312,0 2.172,0.434 v -8.598 c 0,-0.601 -0.047,-0.796 -1.54,-0.796 h -0.531 v -0.516 c 0.582,0.051 2.024,0.051 2.684,0.051 0.668,0 2.109,0 2.691,-0.051 v 0.516 h -0.531 c -1.492,0 -1.543,0.179 -1.543,0.796 z"
         style="fill:#000000;fill-opacity:1;fill-rule:nonzero;stroke:none"
         id="path40"
         inkscape:connector-curvature="0" /><g
         id="g42"
         transform="matrix(0.988564,-1,-1,-0.988564,0,149.99028)"><path
           d="M 38.307,-3.717 82.814,-3.973"
           style="fill:none;stroke:#000000;stroke-width:0.56892902;stroke-linecap:butt;stroke-linejoin:miter;stroke-miterlimit:4;stroke-dasharray:none;stroke-opacity:1"
           id="path44"
           inkscape:connector-curvature="0" /></g><g
         id="g46"
         transform="matrix(0.988564,-1,-1,-0.988564,0,149.99028)"><path
           d="m 80.649,-3.972 v 1.241 l 5.326,-1.242 -5.325,-1.241 -0.001,1.242"
           style="fill:#000000;fill-opacity:1;fill-rule:evenodd;stroke:#000000;stroke-width:0.363511;stroke-linecap:butt;stroke-linejoin:miter;stroke-miterlimit:4;stroke-dasharray:none;stroke-opacity:1"
           id="path48"
           inkscape:connector-curvature="0" /></g><g
         id="g50"
         transform="matrix(1,-0.00575099,-0.00575099,-1,0,149.99028)"><path
           d="m 41.002,81.924 44.3,-0.254"
           style="fill:none;stroke:#000000;stroke-width:0.79998702;stroke-linecap:butt;stroke-linejoin:miter;stroke-miterlimit:4;stroke-dasharray:none;stroke-opacity:1"
           id="path52"
           inkscape:connector-curvature="0" /></g><g
         id="g54"
         transform="matrix(1,-0.00575099,-0.00575099,-1,0,149.99028)"><path
           d="m 82.259,81.671 -0.002,1.743 7.49,-1.743 -7.49,-1.746 0.002,1.746"
           style="fill:#000000;fill-opacity:1;fill-rule:evenodd;stroke:#000000;stroke-width:0.51114202;stroke-linecap:butt;stroke-linejoin:miter;stroke-miterlimit:4;stroke-dasharray:none;stroke-opacity:1"
           id="path56"
           inkscape:connector-curvature="0" /></g><g
         id="g58"
         transform="matrix(1,0.988564,0.988564,-1,0,149.99028)"><path
           d="M -43.783,86.222 0.724,85.966"
           style="fill:none;stroke:#000000;stroke-width:0.56892902;stroke-linecap:butt;stroke-linejoin:miter;stroke-miterlimit:4;stroke-dasharray:none;stroke-opacity:1"
           id="path60"
           inkscape:connector-curvature="0" /></g><g
         id="g62"
         transform="matrix(1,0.988564,0.988564,-1,0,149.99028)"><path
           d="m -1.44,85.967 -0.001,1.241 5.326,-1.243 -5.327,-1.238 0.002,1.24"
           style="fill:#000000;fill-opacity:1;fill-rule:evenodd;stroke:#000000;stroke-width:0.363511;stroke-linecap:butt;stroke-linejoin:miter;stroke-miterlimit:4;stroke-dasharray:none;stroke-opacity:1"
           id="path64"
           inkscape:connector-curvature="0" /></g><g
         id="g66"
         transform="matrix(1,-0.00575099,-0.00575099,-1,0,149.99028)"><path
           d="m 130.141,80.838 62.584,-0.357"
           style="fill:none;stroke:#000000;stroke-width:0.79998702;stroke-linecap:butt;stroke-linejoin:miter;stroke-miterlimit:4;stroke-dasharray:none;stroke-opacity:1"
           id="path68"
           inkscape:connector-curvature="0" /></g><g
         id="g70"
         transform="matrix(1,-0.00575099,-0.00575099,-1,0,149.99028)"><path
           d="m 189.678,80.479 0.002,1.747 7.486,-1.743 -7.487,-1.746 -0.001,1.742"
           style="fill:#000000;fill-opacity:1;fill-rule:evenodd;stroke:#000000;stroke-width:0.51114202;stroke-linecap:butt;stroke-linejoin:miter;stroke-miterlimit:4;stroke-dasharray:none;stroke-opacity:1"
           id="path72"
           inkscape:connector-curvature="0" /></g><path
         d="m 67.773,103.584 0.204,0.055 0.097,0.019 0.094,0.024 0.051,0.007 0.093,0.008 0.047,0.008 0.047,0.004 h 0.098 l 0.141,-0.012 0.093,-0.015 0.051,-0.016 0.047,-0.012 0.047,-0.015 0.094,-0.039 0.05,-0.024 0.047,-0.027 0.051,-0.031 0.047,-0.032 0.101,-0.07 0.047,-0.043 c 0.082,-0.062 0.16,-0.141 0.309,0.008 0.031,0.031 0.055,0.117 -0.008,0.183 -0.187,0.188 -0.433,0.379 -0.629,0.579 -0.269,0.269 -0.535,0.586 -0.793,0.843 -0.047,0.047 -0.148,0.149 -0.297,-0.004 -0.09,-0.085 -0.027,-0.16 0.02,-0.21 0.183,-0.196 0.394,-0.536 0.16,-0.77 -0.086,-0.086 -0.191,-0.109 -0.363,-0.156 l -5.824,-1.578 3.609,4.187 c 0.148,0.164 0.34,0.383 0.914,-0.18 0.137,-0.136 0.215,-0.214 0.375,-0.058 0.078,0.078 -0.004,0.176 -0.031,0.207 -0.317,0.316 -0.672,0.617 -0.985,0.93 -0.183,0.183 -0.621,0.671 -0.8,0.851 -0.047,0.051 -0.149,0.152 -0.309,-0.008 -0.086,-0.086 -0.008,-0.164 0.105,-0.273 0.344,-0.348 0.352,-0.445 0.219,-0.613 l -0.554,-0.653 -5.458,-1.476 3.688,4.281 c 0.09,0.094 0.273,0.277 0.875,-0.313 0.082,-0.078 0.168,-0.164 0.324,-0.007 0.086,0.086 -0.008,0.179 -0.019,0.195 -0.317,0.316 -0.672,0.621 -0.993,0.941 -0.277,0.278 -0.535,0.582 -0.8,0.852 -0.039,0.039 -0.145,0.141 -0.293,-0.008 -0.094,-0.094 -0.024,-0.168 0.101,-0.293 0.395,-0.394 0.332,-0.473 0.125,-0.707 l -4.445,-5.152 c -0.133,-0.153 -0.188,-0.223 -0.078,-0.332 0.097,-0.094 0.164,-0.071 0.351,-0.024 l 6.321,1.696 -3.676,-4.258 c -0.152,-0.18 -0.176,-0.235 -0.078,-0.328 0.101,-0.102 0.226,-0.071 0.332,-0.043 z"
         style="fill:#000000;fill-opacity:1;fill-rule:nonzero;stroke:none"
         id="path74"
         inkscape:connector-curvature="0" /><path
         d="m 67.695,99.397 0.004,0.007 0.016,0.016 0.008,0.004 0.004,0.004 0.003,0.008 0.012,0.011 0.004,0.008 0.008,0.004 0.004,0.004 0.004,0.008 0.008,0.008 0.003,0.007 0.016,0.016 v 0.004 l 0.004,0.012 0.008,0.015 v 0.008 l 0.004,0.008 v 0.015 l -0.008,0.016 v 0.008 l -0.008,0.008 -0.004,0.011 -0.008,0.008 v 0.004 l -0.007,0.008 -0.004,0.008 -0.004,0.004 -0.008,0.004 -0.004,0.007 -0.016,0.016 -0.004,0.008 -0.007,0.004 -0.004,0.008 -0.008,0.003 -0.004,0.008 -0.008,0.008 -0.008,0.004 -0.007,0.008 c -0.7,0.008 -1.204,0.5 -1.426,0.726 l -0.199,-0.199 c 0.132,-0.133 0.496,-0.496 0.949,-0.64 l -2.805,-2.805 c -0.183,-0.18 -0.254,-0.254 -0.801,0.297 l -0.207,0.207 -0.199,-0.199 c 0.106,-0.09 0.797,-0.75 1,-0.954 0.172,-0.171 0.848,-0.882 0.961,-1.007 l 0.199,0.199 -0.211,0.207 c -0.55,0.551 -0.476,0.621 -0.297,0.805 z"
         style="fill:#000000;fill-opacity:1;fill-rule:nonzero;stroke:none"
         id="path76"
         inkscape:connector-curvature="0" /><path
         d="m 60.758,78.459 0.051,0.09 0.054,0.09 0.055,0.082 0.051,0.082 0.031,0.043 0.027,0.035 0.032,0.039 0.062,0.07 0.031,0.039 0.106,0.094 0.039,0.031 0.078,0.055 0.043,0.023 0.039,0.024 0.047,0.023 0.094,0.039 0.054,0.02 0.051,0.016 0.059,0.011 0.054,0.012 0.059,0.012 0.063,0.008 0.066,0.007 c 0.101,0.008 0.211,0.008 0.211,0.223 0,0.039 -0.043,0.121 -0.137,0.121 -0.266,0 -0.574,-0.035 -0.851,-0.035 -0.383,0 -0.793,0.035 -1.161,0.035 -0.062,0 -0.207,0 -0.207,-0.211 0,-0.125 0.098,-0.133 0.164,-0.133 0.266,-0.011 0.657,-0.101 0.657,-0.433 0,-0.121 -0.055,-0.215 -0.145,-0.367 l -3,-5.235 -0.414,5.512 c -0.008,0.223 -0.031,0.512 0.777,0.523 0.192,0 0.305,0 0.305,0.223 0,0.109 -0.125,0.121 -0.168,0.121 -0.445,0 -0.914,-0.035 -1.355,-0.035 -0.258,0 -0.914,0.035 -1.168,0.035 -0.067,0 -0.211,0 -0.211,-0.223 0,-0.121 0.109,-0.121 0.265,-0.121 0.493,0 0.567,-0.066 0.59,-0.281 l 0.067,-0.851 -2.813,-4.903 -0.422,5.633 c 0,0.133 0,0.391 0.844,0.402 0.113,0 0.234,0 0.234,0.223 0,0.121 -0.132,0.121 -0.152,0.121 -0.445,0 -0.914,-0.035 -1.367,-0.035 -0.391,0 -0.789,0.035 -1.168,0.035 -0.055,0 -0.203,0 -0.203,-0.211 0,-0.133 0.101,-0.133 0.281,-0.133 0.555,0 0.566,-0.101 0.586,-0.414 l 0.504,-6.789 c 0.012,-0.199 0.019,-0.285 0.176,-0.285 0.136,0 0.168,0.063 0.265,0.231 l 3.27,5.667 0.414,-5.613 c 0.019,-0.23 0.039,-0.285 0.176,-0.285 0.144,0 0.207,0.109 0.265,0.207 z"
         style="fill:#000000;fill-opacity:1;fill-rule:nonzero;stroke:none"
         id="path78"
         inkscape:connector-curvature="0" /><path
         d="m 64.984,71.916 h -0.265 c -0.02,-0.172 -0.102,-0.633 -0.203,-0.711 -0.059,-0.043 -0.661,-0.043 -0.766,-0.043 h -1.434 c 0.817,0.719 1.086,0.934 1.555,1.301 0.578,0.461 1.113,0.941 1.113,1.684 0,0.937 -0.82,1.511 -1.82,1.511 -0.961,0 -1.617,-0.676 -1.617,-1.386 0,-0.399 0.336,-0.438 0.418,-0.438 0.18,0 0.41,0.133 0.41,0.41 0,0.141 -0.059,0.41 -0.461,0.41 0.238,0.551 0.77,0.723 1.137,0.723 0.777,0 1.179,-0.602 1.179,-1.23 0,-0.68 -0.48,-1.215 -0.73,-1.493 l -1.871,-1.851 c -0.082,-0.071 -0.082,-0.09 -0.082,-0.305 h 3.203 z"
         style="fill:#000000;fill-opacity:1;fill-rule:nonzero;stroke:none"
         id="path80"
         inkscape:connector-curvature="0" /><path
         d="m 58.996,50.736 -0.078,0.078 -0.008,0.004 -0.004,0.008 -0.008,0.004 -0.015,0.016 -0.016,0.008 -0.008,0.011 -0.011,0.004 -0.008,0.004 -0.012,0.008 h -0.012 l -0.015,0.008 h -0.02 L 58.77,50.885 58.762,50.881 H 58.754 L 58.746,50.877 58.742,50.873 58.734,50.869 H 58.73 L 58.727,50.865 58.719,50.861 58.711,50.854 58.703,50.85 58.691,50.838 58.684,50.834 58.68,50.826 58.672,50.822 58.656,50.807 58.652,50.799 58.641,50.795 58.609,50.764 C 58.625,49.772 57.934,49.08 57.684,48.83 l 0.246,-0.242 c 0.156,0.156 0.617,0.617 0.82,1.23 l 4.07,-4.07 c 0.285,-0.285 0.356,-0.398 -0.351,-1.105 l -0.25,-0.254 0.242,-0.242 c 0.25,0.3 0.934,0.984 1.25,1.296 0.312,0.317 0.996,0.996 1.297,1.246 l -0.246,0.247 -0.25,-0.25 c -0.707,-0.707 -0.817,-0.649 -1.11,-0.356 z"
         style="fill:#000000;fill-opacity:1;fill-rule:nonzero;stroke:none"
         id="path82"
         inkscape:connector-curvature="0" /><path
         d="m 70.629,147.221 0.105,0.191 0.118,0.188 0.113,0.183 0.113,0.176 0.125,0.164 0.067,0.082 0.058,0.074 0.067,0.078 0.144,0.145 0.074,0.066 0.078,0.067 0.079,0.062 0.082,0.063 0.086,0.058 0.179,0.102 0.098,0.047 0.097,0.043 0.106,0.043 0.109,0.039 0.114,0.035 0.117,0.027 0.121,0.024 0.129,0.023 0.133,0.02 0.136,0.008 c 0.215,0.023 0.45,0.023 0.45,0.476 0,0.09 -0.094,0.262 -0.289,0.262 -0.567,0 -1.223,-0.078 -1.817,-0.078 -0.809,0 -1.687,0.078 -2.465,0.078 -0.14,0 -0.441,0 -0.441,-0.453 0,-0.262 0.203,-0.285 0.344,-0.285 0.57,-0.02 1.402,-0.211 1.402,-0.915 0,-0.261 -0.117,-0.457 -0.309,-0.789 l -6.39,-11.136 -0.875,11.73 c -0.024,0.473 -0.067,1.09 1.652,1.11 0.41,0 0.649,0 0.649,0.476 0,0.238 -0.27,0.262 -0.36,0.262 -0.949,0 -1.941,-0.078 -2.883,-0.078 -0.55,0 -1.945,0.078 -2.484,0.078 -0.145,0 -0.453,0 -0.453,-0.477 0,-0.261 0.238,-0.261 0.57,-0.261 1.039,0 1.199,-0.137 1.254,-0.594 l 0.141,-1.813 -5.989,-10.433 -0.894,11.992 c 0,0.277 0,0.828 1.793,0.848 0.238,0 0.5,0 0.5,0.476 0,0.262 -0.285,0.262 -0.328,0.262 -0.95,0 -1.942,-0.078 -2.91,-0.078 -0.833,0 -1.68,0.078 -2.485,0.078 -0.117,0 -0.433,0 -0.433,-0.453 0,-0.285 0.218,-0.285 0.593,-0.285 1.188,0 1.211,-0.211 1.254,-0.872 L 53.145,133.9 c 0.023,-0.425 0.046,-0.609 0.378,-0.609 0.286,0 0.352,0.137 0.567,0.492 l 6.961,12.067 0.871,-11.95 c 0.043,-0.492 0.094,-0.609 0.383,-0.609 0.3,0 0.441,0.234 0.558,0.441 z"
         style="fill:#000000;fill-opacity:1;fill-rule:nonzero;stroke:none"
         id="path84"
         inkscape:connector-curvature="0" /><path
         d="m 137.875,83.232 v 0.024 l -0.004,0.004 v 0.008 l -0.004,0.004 v 0.007 l -0.004,0.004 -0.004,0.008 v 0.004 l -0.004,0.004 -0.003,0.008 -0.012,0.011 h -0.004 l -0.004,0.004 v 0.004 h -0.004 l -0.004,0.004 h -0.004 l -0.004,0.004 h -0.004 l -0.003,0.004 h -0.008 l -0.004,0.004 h -0.008 l -0.004,0.004 h -0.012 l -0.007,0.004 h -0.028 c -0.25,0 -1.031,-0.086 -1.308,-0.106 -0.086,-0.012 -0.207,-0.023 -0.207,-0.215 0,-0.132 0.101,-0.132 0.261,-0.132 0.516,0 0.536,-0.071 0.536,-0.18 l -0.036,-0.215 -1.55,-6.172 c -0.047,-0.148 -0.047,-0.176 -0.047,-0.238 0,-0.246 0.215,-0.301 0.316,-0.301 0.168,0 0.34,0.129 0.395,0.281 l 0.203,0.813 0.238,0.965 c 0.063,0.234 0.125,0.472 0.18,0.718 0.023,0.067 0.109,0.418 0.117,0.481 0.031,0.101 0.363,0.699 0.73,0.992 0.235,0.168 0.567,0.371 1.028,0.371 0.461,0 0.578,-0.363 0.578,-0.75 0,-0.578 -0.406,-1.75 -0.664,-2.398 -0.086,-0.25 -0.141,-0.379 -0.141,-0.594 0,-0.5 0.375,-0.879 0.879,-0.879 1.008,0 1.406,1.566 1.406,1.652 0,0.106 -0.097,0.106 -0.129,0.106 -0.105,0 -0.105,-0.031 -0.16,-0.192 -0.16,-0.57 -0.504,-1.328 -1.093,-1.328 -0.184,0 -0.258,0.11 -0.258,0.352 0,0.269 0.097,0.527 0.195,0.762 0.172,0.461 0.652,1.738 0.652,2.359 0,0.695 -0.429,1.145 -1.234,1.145 -0.676,0 -1.191,-0.329 -1.586,-0.825 z"
         style="fill:#000000;fill-opacity:1;fill-rule:nonzero;stroke:none"
         id="path86"
         inkscape:connector-curvature="0" /><path
         d="m 148.734,78.545 0.137,0.195 c 0.156,0.203 0.34,0.391 0.703,0.422 0.086,0.008 0.172,0.012 0.172,0.164 0,0.051 -0.043,0.106 -0.105,0.106 -0.168,0 -0.387,-0.032 -0.567,-0.032 -0.262,0 -0.586,0.032 -0.832,0.032 -0.039,0 -0.16,0 -0.16,-0.168 0,-0.094 0.109,-0.102 0.137,-0.102 0.168,-0.008 0.41,-0.055 0.41,-0.262 0,-0.086 -0.082,-0.222 -0.109,-0.269 l -2.118,-3.473 -0.41,3.785 c 0,0.211 0.434,0.219 0.524,0.219 0.097,0 0.203,0 0.203,0.164 0,0.008 -0.008,0.106 -0.125,0.106 -0.145,0 -0.324,-0.016 -0.469,-0.024 -0.148,-0.008 -0.344,-0.008 -0.492,-0.008 -0.172,0 -0.617,0.032 -0.789,0.032 -0.035,0 -0.149,0 -0.149,-0.168 0,-0.102 0.094,-0.102 0.196,-0.102 0.32,0 0.359,-0.055 0.382,-0.129 0.004,-0.043 0.024,-0.254 0.055,-0.488 l -2.066,-3.387 -0.399,3.676 c 0,0.027 -0.011,0.102 -0.011,0.109 0,0.219 0.464,0.219 0.527,0.219 0.094,0 0.199,0 0.199,0.164 0,0.028 -0.023,0.106 -0.121,0.106 -0.215,0 -0.75,-0.032 -0.965,-0.032 -0.25,0 -0.566,0.032 -0.785,0.032 -0.078,0 -0.152,-0.032 -0.152,-0.16 0,-0.11 0.09,-0.11 0.211,-0.11 0.351,0 0.351,-0.047 0.375,-0.234 l 0.5,-4.563 c 0.015,-0.152 0.023,-0.207 0.156,-0.207 0.129,0 0.183,0.067 0.226,0.153 l 2.34,3.851 0.41,-3.808 c 0.016,-0.153 0.055,-0.196 0.168,-0.196 0.125,0 0.172,0.067 0.223,0.16 z"
         style="fill:#000000;fill-opacity:1;fill-rule:nonzero;stroke:none"
         id="path88"
         inkscape:connector-curvature="0" /><path
         d="m 150.375,74.432 v -0.078 l -0.004,-0.079 -0.016,-0.164 -0.023,-0.129 -0.008,-0.039 -0.023,-0.086 -0.016,-0.043 -0.012,-0.042 -0.015,-0.043 -0.02,-0.047 -0.039,-0.086 -0.023,-0.043 -0.024,-0.047 -0.027,-0.043 -0.031,-0.047 -0.028,-0.043 -0.035,-0.043 -0.035,-0.047 -0.035,-0.043 -0.039,-0.047 -0.133,-0.132 c -0.027,-0.032 -0.055,-0.055 -0.055,-0.09 0,-0.055 0.063,-0.106 0.106,-0.106 0.105,0 0.742,0.598 0.742,1.489 0,0.468 -0.18,0.816 -0.523,0.816 -0.25,0 -0.426,-0.191 -0.426,-0.426 0,-0.238 0.172,-0.433 0.433,-0.433 0.18,0 0.297,0.121 0.309,0.121 z"
         style="fill:#000000;fill-opacity:1;fill-rule:nonzero;stroke:none"
         id="path90"
         inkscape:connector-curvature="0" /><path
         d="m 153.328,79.287 v 0.012 h 0.004 v 0.008 l 0.004,0.004 v 0.015 l 0.004,0.004 v 0.004 l 0.004,0.008 v 0.008 l 0.004,0.011 v 0.008 l 0.004,0.004 v 0.016 l 0.003,0.004 v 0.015 c 0,0.039 -0.027,0.106 -0.117,0.106 -0.152,0 -0.777,-0.059 -0.961,-0.078 -0.062,-0.004 -0.168,-0.012 -0.168,-0.172 0,-0.102 0.106,-0.102 0.196,-0.102 0.359,0 0.359,-0.055 0.359,-0.113 0,-0.055 -0.074,-0.352 -0.117,-0.527 l -0.172,-0.688 c -0.07,-0.254 -0.48,-1.898 -0.496,-1.992 -0.039,-0.184 -0.039,-0.281 -0.039,-0.367 0,-0.762 0.48,-1.239 1.105,-1.239 l 0.004,0.211 c -0.363,0 -0.574,0.321 -0.574,0.766 0,0.273 0.066,0.531 0.277,1.379 0.043,0.14 0.043,0.156 0.188,0.32 0.285,0.332 0.621,0.492 0.89,0.492 0.293,0 0.547,-0.215 0.547,-0.722 0,-0.309 -0.164,-1.075 -0.39,-1.512 -0.18,-0.363 -0.555,-0.723 -0.938,-0.723 l -0.004,-0.211 c 0.938,0 1.93,1.02 1.93,2.129 0,0.879 -0.605,1.25 -1.121,1.25 -0.391,0 -0.719,-0.215 -0.945,-0.41 z"
         style="fill:#000000;fill-opacity:1;fill-rule:nonzero;stroke:none"
         id="path92"
         inkscape:connector-curvature="0" /><path
         d="m 159.207,73.342 -0.004,0.004 v 0.019 l -0.004,0.004 v 0.004 l -0.004,0.004 -0.004,0.008 -0.003,0.004 v 0.004 l -0.008,0.015 -0.008,0.004 -0.004,0.008 -0.012,0.012 v 0.004 l -0.008,0.003 -0.003,0.008 -0.012,0.012 -0.004,0.008 -0.004,0.004 -0.008,0.004 -0.004,0.007 -0.011,0.012 -0.004,0.008 -0.008,0.008 -0.008,0.004 -0.004,0.008 -0.008,0.003 -0.008,0.012 -0.007,0.004 -0.008,0.012 -0.008,0.004 -0.008,0.007 -0.008,0.012 c -1.339,1.348 -1.679,3.375 -1.679,5.012 0,1.867 0.406,3.734 1.722,5.07 0.141,0.129 0.141,0.153 0.141,0.184 0,0.078 -0.043,0.105 -0.105,0.105 -0.11,0 -1.071,-0.726 -1.704,-2.086 -0.55,-1.179 -0.675,-2.371 -0.675,-3.273 0,-0.836 0.117,-2.129 0.703,-3.34 0.64,-1.32 1.566,-2.016 1.676,-2.016 0.062,0 0.105,0.032 0.105,0.11 z"
         style="fill:#000000;fill-opacity:1;fill-rule:nonzero;stroke:none"
         id="path94"
         inkscape:connector-curvature="0" /><path
         d="m 165.012,80.318 -0.899,2.129 c -0.035,0.09 -0.054,0.129 -0.054,0.141 0,0.066 0.183,0.266 0.632,0.309 0.11,0.011 0.215,0.023 0.215,0.207 0,0.128 -0.129,0.128 -0.16,0.128 -0.441,0 -0.902,-0.035 -1.351,-0.035 -0.27,0 -0.93,0.035 -1.2,0.035 -0.066,0 -0.195,0 -0.195,-0.214 0,-0.121 0.105,-0.121 0.25,-0.121 0.641,0 0.703,-0.106 0.801,-0.34 l 1.265,-2.993 -2.265,-2.433 -0.137,-0.117 c -0.523,-0.571 -1.027,-0.739 -1.578,-0.77 -0.137,-0.012 -0.234,-0.012 -0.234,-0.215 0,-0.011 0,-0.117 0.144,-0.117 0.316,0 0.672,0.035 1.004,0.035 0.395,0 0.816,-0.035 1.199,-0.035 0.067,0 0.196,0 0.196,0.215 0,0.105 -0.11,0.117 -0.129,0.117 -0.094,0.008 -0.43,0.031 -0.43,0.332 0,0.172 0.164,0.344 0.289,0.481 l 1.094,1.16 0.965,1.047 1.082,-2.559 c 0.043,-0.117 0.054,-0.129 0.054,-0.152 0,-0.086 -0.203,-0.266 -0.621,-0.309 -0.121,-0.012 -0.215,-0.023 -0.215,-0.207 0,-0.125 0.118,-0.125 0.161,-0.125 0.3,0 1.05,0.035 1.351,0.035 0.27,0 0.918,-0.035 1.188,-0.035 0.074,0 0.207,0 0.207,0.203 0,0.129 -0.11,0.129 -0.196,0.129 -0.715,0.008 -0.738,0.043 -0.922,0.469 -0.414,1 -1.136,2.672 -1.382,3.312 0.73,0.75 1.851,2.028 2.199,2.329 0.308,0.257 0.715,0.511 1.359,0.543 0.141,0.011 0.235,0.011 0.235,0.218 0,0.008 0,0.117 -0.137,0.117 -0.324,0 -0.676,-0.035 -1.008,-0.035 -0.398,0 -0.805,0.035 -1.191,0.035 -0.063,0 -0.203,0 -0.203,-0.214 0,-0.075 0.054,-0.11 0.128,-0.121 0.098,-0.008 0.43,-0.032 0.43,-0.329 0,-0.152 -0.117,-0.293 -0.203,-0.386 z"
         style="fill:#000000;fill-opacity:1;fill-rule:nonzero;stroke:none"
         id="path96"
         inkscape:connector-curvature="0" /><path
         d="m 172.645,78.588 -0.004,0.082 v 0.168 l -0.004,0.086 -0.008,0.183 -0.016,0.188 -0.015,0.199 -0.024,0.203 -0.031,0.207 -0.035,0.219 -0.043,0.219 -0.047,0.222 -0.059,0.227 -0.066,0.227 -0.074,0.23 -0.082,0.231 -0.047,0.113 -0.051,0.113 -0.051,0.117 -0.05,0.114 c -0.645,1.316 -1.563,2.011 -1.672,2.011 -0.063,0 -0.106,-0.039 -0.106,-0.105 0,-0.031 0,-0.055 0.199,-0.246 1.055,-1.059 1.664,-2.766 1.664,-5.008 0,-1.828 -0.394,-3.715 -1.726,-5.066 -0.137,-0.129 -0.137,-0.153 -0.137,-0.18 0,-0.067 0.043,-0.11 0.106,-0.11 0.109,0 1.07,0.731 1.703,2.09 0.547,1.176 0.676,2.367 0.676,3.266 z"
         style="fill:#000000;fill-opacity:1;fill-rule:nonzero;stroke:none"
         id="path98"
         inkscape:connector-curvature="0" /></g></g></svg>
