<?xml version="1.0" encoding="UTF-8" standalone="no"?>
<!-- Created with Inkscape (http://www.inkscape.org/) -->

<svg
   xmlns:dc="http://purl.org/dc/elements/1.1/"
   xmlns:cc="http://creativecommons.org/ns#"
   xmlns:rdf="http://www.w3.org/1999/02/22-rdf-syntax-ns#"
   xmlns:svg="http://www.w3.org/2000/svg"
   xmlns="http://www.w3.org/2000/svg"
   xmlns:sodipodi="http://sodipodi.sourceforge.net/DTD/sodipodi-0.dtd"
   xmlns:inkscape="http://www.inkscape.org/namespaces/inkscape"
   version="1.1"
   id="svg2"
   xml:space="preserve"
   width="100%"
   height="100%"
   viewBox="0 0 63.578494 71.713626"
   sodipodi:docname="timed.svg"
   inkscape:version="0.92.0 unknown"><sodipodi:namedview
     pagecolor="#ffffff"
     bordercolor="#666666"
     borderopacity="1"
     objecttolerance="10"
     gridtolerance="10"
     guidetolerance="10"
     inkscape:pageopacity="0"
     inkscape:pageshadow="2"
     inkscape:window-width="1366"
     inkscape:window-height="744"
     id="namedview4"
     showgrid="false"
     inkscape:zoom="4.4674663"
     inkscape:cx="-0.31612902"
     inkscape:cy="18.478339"
     inkscape:window-x="0"
     inkscape:window-y="24"
     inkscape:window-maximized="1"
     inkscape:current-layer="g10"
     fit-margin-top="0"
     fit-margin-left="0"
     fit-margin-right="0"
     fit-margin-bottom="0" /><metadata
     id="metadata8"><rdf:RDF><cc:Work
         rdf:about=""><dc:format>image/svg+xml</dc:format><dc:type
           rdf:resource="http://purl.org/dc/dcmitype/StillImage" /><dc:title></dc:title></cc:Work></rdf:RDF></metadata><defs
     id="defs6" /><g
     transform="matrix(1.3333333,0,0,-1.3333333,138.64205,156.39438)"
     inkscape:label="NN1"
     inkscape:groupmode="layer"
     id="g10"><g
       transform="matrix(0.39691271,0,0,-0.39691271,-271.12882,201.88056)"
       id="g6001"><path
         inkscape:connector-curvature="0"
         id="path5708"
         style="fill:#eef9fb;fill-opacity:1;fill-rule:nonzero;stroke:none;stroke-width:0.03527778"
         d="m 537.09463,310.22921 c -4.78614,-6.57084 -40.59485,-19.08881 -40.59485,-19.08881 l -12.85487,8.99372 -17.44909,-9.531 c 0,0 -36.13009,13.05525 -40.91694,19.62609 -4.78649,6.56907 -4.12997,38.38646 -4.12997,38.38646 h 120.07604 c 0,0 0.65687,-31.81739 -4.13032,-38.38646" /><path
         inkscape:connector-curvature="0"
         id="path5710"
         style="fill:#3b393d;fill-opacity:1;fill-rule:nonzero;stroke:none;stroke-width:0.03527778"
         d="m 508.12628,322.20425 -2.33327,-0.248 c 1.07456,-10.09686 -1.75507,-14.10124 -4.25097,-17.63395 -1.94028,-2.74603 -3.77332,-5.34035 -3.12456,-9.97162 0.0836,-0.59725 0.025,-1.51165 -1.43933,-2.54953 -2.63137,-1.86443 -8.394,-3.04906 -15.41498,-3.16971 -6.43855,-0.11324 -12.52538,0.72743 -15.15004,2.08422 -0.82974,0.42933 -0.99942,0.75282 -0.99942,0.81597 0,2.92912 -2.08033,4.18853 -3.91654,5.29943 -2.4959,1.51165 -5.07718,3.0741 -5.07718,8.82615 h -2.34597 c 0,-7.07426 3.5881,-9.24631 6.20853,-10.83275 1.88066,-1.13877 2.78519,-1.75436 2.78519,-3.29283 0,-1.14582 0.7627,-2.1216 2.26765,-2.89948 2.98556,-1.54411 9.36943,-2.46662 16.268,-2.34632 3.58951,0.0617 12.40402,0.53586 16.73048,3.60115 2.31423,1.63865 2.58587,3.50908 2.40701,4.78896 -0.52,3.71087 0.8382,5.6328 2.71709,8.29275 2.59997,3.67947 5.83565,8.25994 4.66831,19.23556" /><path
         inkscape:connector-curvature="0"
         id="path5712"
         style="fill:#3b393d;fill-opacity:1;fill-rule:nonzero;stroke:none;stroke-width:0.03527778"
         d="m 455.55921,307.44085 c -1.13841,0.55104 -4.90996,4.61822 -5.38656,12.36063 -0.23248,3.77825 0.84631,7.05873 3.11926,9.48937 1.27564,1.36349 2.92029,2.46662 4.89409,3.29847 2.4772,-2.47897 3.7278,-6.11963 4.17054,-11.33404 0.7948,-9.35249 -5.50263,-13.37557 -6.79733,-13.81443 z m -8.93163,31.78387 -0.22648,-2.24084 c 4.20758,-0.42616 7.41257,-1.3014 9.81322,-2.82364 -1.7907,-0.88618 -3.32246,-1.9999 -4.56741,-3.33057 -2.70651,-2.89384 -3.99415,-6.75535 -3.72251,-11.16683 0.57961,-9.42058 5.65326,-14.50199 7.60024,-14.50199 1.00048,0 3.14572,1.20756 5.00274,3.23003 2.16465,2.35621 4.62774,6.53309 4.07388,13.0556 -0.44662,5.25145 -1.72544,9.14647 -4.10457,11.94929 2.38266,0.67769 5.13151,1.03294 8.19715,1.04811 l -0.012,2.25248 c -3.79236,-0.0198 -7.16068,-0.53587 -10.02524,-1.52082 -2.82716,2.24719 -6.75499,3.51613 -12.02902,4.04918" /><path
         inkscape:connector-curvature="0"
         id="path5714"
         style="fill:#505256;fill-opacity:1;fill-rule:nonzero;stroke:none;stroke-width:0.03527778"
         d="m 449.29494,337.78715 c 0,1.31128 -1.18146,2.37596 -2.63984,2.37596 -1.45838,0 -2.63948,-1.06468 -2.63948,-2.37596 0,-1.31339 1.1811,-2.37561 2.63948,-2.37561 1.45838,0 2.63984,1.06222 2.63984,2.37561" /><path
         inkscape:connector-curvature="0"
         id="path5716"
         style="fill:#505256;fill-opacity:1;fill-rule:nonzero;stroke:none;stroke-width:0.03527778"
         d="m 472.1373,335.53502 c 0,1.31057 -1.18145,2.3756 -2.63984,2.3756 -1.45838,0 -2.63983,-1.06503 -2.63983,-2.3756 0,-1.31339 1.18145,-2.37561 2.63983,-2.37561 1.45839,0 2.63984,1.06222 2.63984,2.37561" /><path
         inkscape:connector-curvature="0"
         id="path5718"
         style="fill:#505256;fill-opacity:1;fill-rule:nonzero;stroke:none;stroke-width:0.03527778"
         d="m 513.17594,327.68606 c 0,3.88726 -3.15101,7.03898 -7.03933,7.03898 -3.88796,0 -7.03932,-3.15172 -7.03932,-7.03898 0,-3.88761 3.15136,-7.03932 7.03932,-7.03932 3.88832,0 7.03933,3.15171 7.03933,7.03932" /><path
         inkscape:connector-curvature="0"
         id="path5720"
         style="fill:#3b393d;fill-opacity:1;fill-rule:nonzero;stroke:none;stroke-width:0.03527778"
         d="m 510.36007,327.68606 c 0,2.33222 -1.89054,4.22346 -4.22346,4.22346 -2.33292,0 -4.22345,-1.89124 -4.22345,-4.22346 0,-2.33256 1.89053,-4.2231 4.22345,-4.2231 2.33292,0 4.22346,1.89054 4.22346,4.2231" /><path
         inkscape:connector-curvature="0"
         id="path5722"
         style="fill:#7799a6;fill-opacity:1;fill-rule:nonzero;stroke:none;stroke-width:0.03527778"
         d="m 482.61868,294.61103 c -12.65943,0 -16.66734,-4.05695 -16.66734,-4.05695 0,0 4.64362,-1.85702 17.25366,-1.7593 8.74853,0.0677 13.44154,2.29729 13.44154,2.29729 0,0 -1.36913,3.51896 -14.02786,3.51896" /><path
         inkscape:connector-curvature="0"
         id="path5724"
         style="fill:#dfad35;fill-opacity:1;fill-rule:nonzero;stroke:none;stroke-width:0.03527778"
         d="m 469.80262,295.88914 h 24.07433 v -12.24001 h -24.07433 z" /><path
         inkscape:connector-curvature="0"
         id="path5726"
         style="fill:#f8be3a;fill-opacity:1;fill-rule:nonzero;stroke:none;stroke-width:0.03527778"
         d="m 509.62911,247.92371 c -0.17215,-0.0236 -0.34466,-0.0342 -0.5154,-0.0356 -0.87419,-26.50702 -16.46097,-30.13993 -26.85028,-30.13993 -10.3893,0 -25.63777,3.63291 -26.51231,30.14028 -0.17074,0.001 -0.34254,0.0116 -0.5154,0.0353 -3.14079,0.43145 -5.30684,4.4644 -4.83553,9.0103 0.47025,4.54377 3.39972,7.87788 6.54156,7.44819 0.0649,-0.009 0.12912,-0.0219 0.19297,-0.0339 1.75366,8.41904 4.69406,13.95906 6.26569,15.96425 2.14665,2.73862 13.19953,8.57497 18.86302,8.57497 5.66279,0 17.05434,-5.83635 19.20135,-8.57497 1.57162,-2.00519 4.51167,-7.54521 6.26568,-15.96461 0.0646,0.012 0.12841,0.0254 0.19368,0.0342 3.14148,0.42969 6.06954,-2.90442 6.54156,-7.44819 0.47025,-4.5459 -1.69439,-8.57885 -4.83659,-9.0103" /><path
         inkscape:connector-curvature="0"
         id="path5728"
         style="fill:#3a2116;fill-opacity:1;fill-rule:nonzero;stroke:none;stroke-width:0.03527778"
         d="m 511.00812,228.83384 c -4.80448,-14.45542 -14.98424,-19.97992 -22.01122,-12.19094 -13.37627,-3.556 -27.23021,-5.53861 -34.20286,12.10628 -4.12397,10.43481 -0.91546,19.04859 -0.65758,19.51743 0.47131,-0.1972 1.00718,-0.33338 1.61466,-0.37818 1.6249,3.97334 3.15913,6.93032 4.4824,4.50215 1.32256,-2.42782 -0.87101,-10.54664 1.62948,-13.81301 5.96865,-7.79639 10.16141,-0.16969 20.34081,-0.16969 10.17941,0 14.41204,-4.74839 20.67419,0.16969 3.23498,2.54106 0.30657,11.38519 1.62949,13.81301 1.32327,2.42817 2.85714,-0.52881 4.48204,-4.50215 0.63817,0.0473 1.54164,0.26741 2.02918,0.48084 0.32843,-0.89959 4.03083,-7.37729 -0.0106,-19.53543" /><path
         inkscape:connector-curvature="0"
         id="path5730"
         style="fill:#86a9b7;fill-opacity:1;fill-rule:nonzero;stroke:none;stroke-width:0.03527778"
         d="m 496.64654,291.09207 c -1.85773,0.78211 -2.62502,1.17263 -14.63922,1.17263 -12.01385,0 -14.0455,-1.31656 -16.05598,-1.71062 -1.22096,0.65723 15.24882,46.78222 15.24882,46.78222 0,0 16.29093,-44.74245 15.44638,-46.24423" /><path
         inkscape:connector-curvature="0"
         id="path5732"
         style="fill:#283138;fill-opacity:1;fill-rule:nonzero;stroke:none;stroke-width:0.03527778"
         d="m 488.82228,295.83975 c 0,-2.48461 -2.11949,-4.22381 -4.34128,-4.22381 -1.26683,0 -2.57246,-0.0191 -2.85856,-0.0229 h -0.0614 c -0.2861,0.004 -1.59173,0.0229 -2.85856,0.0229 -2.22179,0 -4.34128,1.7392 -4.34128,4.22381 0,3.94159 2.3689,4.83376 3.35457,5.53756 -2.46063,9.49219 0.40569,27.52725 0.40569,27.52725 l 3.07869,8.43174 3.5934,-8.68821 c 0,0 3.13443,-17.77859 0.67415,-27.27078 0.98567,-0.7038 3.35457,-1.59597 3.35457,-5.53756" /><path
         inkscape:connector-curvature="0"
         id="path5734"
         style="fill:#505256;fill-opacity:1;fill-rule:nonzero;stroke:none;stroke-width:0.03527778"
         d="m 457.8378,306.43967 c 0,1.30916 -1.0615,2.37066 -2.37066,2.37066 -1.30916,0 -2.37067,-1.0615 -2.37067,-2.37066 0,-1.30916 1.06151,-2.37032 2.37067,-2.37032 1.30916,0 2.37066,1.06116 2.37066,2.37032" /></g></g></svg>